<svg width="10" height="10" viewBox="0 0 10 10" fill="none" xmlns="http://www.w3.org/2000/svg">
<path fill-rule="evenodd" clip-rule="evenodd" d="M10 5.00043C10 5.52716 9.57301 5.95415 9.04628 5.95415L5.95372 5.95415L5.95372 9.04628C5.95372 9.57301 5.52672 10 5 10C4.47328 10 4.04628 9.57301 4.04628 9.04628L4.04628 5.95415L0.953718 5.95415C0.426993 5.95415 -2.416e-07 5.52716 -2.18576e-07 5.00043C-1.95552e-07 4.47371 0.426993 4.04671 0.953718 4.04671L4.04628 4.04671L4.04628 0.953718C4.04628 0.426994 4.47328 -2.41581e-07 5 -2.18557e-07C5.52672 -1.95533e-07 5.95372 0.426994 5.95372 0.953718L5.95372 4.04671L9.04628 4.04671C9.57301 4.04671 10 4.47371 10 5.00043Z" fill="white"/>
</svg>
