<svg width="18" height="18" viewBox="0 0 18 18" fill="none" xmlns="http://www.w3.org/2000/svg">
<path fill-rule="evenodd" clip-rule="evenodd" d="M9 18C13.9706 18 18 13.9706 18 9C18 4.02944 13.9706 0 9 0C4.02944 0 0 4.02944 0 9C0 13.9706 4.02944 18 9 18ZM12.6069 6.8846C12.9793 6.51215 12.9793 5.90829 12.6069 5.53584C12.2344 5.16339 11.6306 5.16339 11.2581 5.53584L9.07135 7.72261L6.88427 5.53553C6.51182 5.16308 5.90796 5.16308 5.53551 5.53553C5.16306 5.90798 5.16306 6.51184 5.53551 6.88429L7.72259 9.07137L5.53582 11.2581C5.16337 11.6306 5.16337 12.2345 5.53582 12.6069C5.90827 12.9794 6.51213 12.9794 6.88458 12.6069L9.07135 10.4201L11.2578 12.6066C11.6303 12.9791 12.2341 12.9791 12.6066 12.6066C12.979 12.2342 12.979 11.6303 12.6066 11.2578L10.4201 9.07137L12.6069 6.8846Z" fill="#A2ABC5"/>
</svg>
