<svg width="41" height="25" viewBox="0 0 41 25" fill="none" xmlns="http://www.w3.org/2000/svg">
<path d="M37.7718 0.000722721C37.621 0.00166563 37.4701 0.00637979 37.3193 0.0158088C36.0752 0.084641 34.7839 0.374113 33.8508 0.839909L33.8319 0.851224L7.34624 12.1859L6.95979 11.9407C5.01625 10.6867 2.98694 9.41376 0 8.91402C0.195108 9.35718 0.437343 9.84749 0.731419 10.3755C1.36199 11.4976 2.16975 12.7611 2.96998 13.9208C3.7702 15.0712 4.56854 16.1178 5.15764 16.7873C5.38479 17.0513 5.53654 17.1927 5.6685 17.3153L21.8992 10.847L21.7861 12.2048C21.4374 16.3913 20.721 20.6532 19.5711 25L22.2574 23.2085C25.3301 18.3525 26.3575 14.9863 28.9495 8.37656L29.0626 8.09369L37.6869 3.33201H37.7058C39.8642 2.24861 40.7974 1.29062 40.9482 0.9408C41.0236 0.765419 41.0047 0.811622 40.967 0.748447C40.9293 0.686216 40.7502 0.523092 40.4203 0.385428C39.9114 0.177989 39.1196 0.0346669 38.2242 0.00543682C38.0828 0.00072229 37.9226 -0.00116309 37.7718 0.000722721ZM11.0976 1.10769L9.01455 1.52257L16.9791 6.2173L22.6438 3.79403C19.4297 2.79078 15.9234 1.84976 11.0976 1.10769Z" fill="#A2ABC5"/>
</svg>
