<svg width="16" height="16" viewBox="0 0 16 16" fill="none" xmlns="http://www.w3.org/2000/svg">
<path d="M14.6714 5.85309L3.47142 0.251487C3.02941 0.0314315 2.53031 -0.0469099 2.04216 0.0271443C1.55402 0.101198 1.10058 0.324044 0.743682 0.665298C0.38678 1.00655 0.143779 1.44961 0.0478109 1.93406C-0.0481572 2.41851 0.00757775 2.92077 0.207417 3.37238L2.12742 7.66961C2.17098 7.77351 2.19342 7.88504 2.19342 7.99771C2.19342 8.11037 2.17098 8.22191 2.12742 8.3258L0.207417 12.623C0.0447768 12.9885 -0.0239788 13.3888 0.00739835 13.7877C0.0387755 14.1865 0.16929 14.5711 0.387082 14.9067C0.604874 15.2422 0.903037 15.5179 1.25447 15.7089C1.60591 15.8998 1.99948 15.9999 2.39942 16C2.774 15.9963 3.14301 15.9088 3.47942 15.7439L14.6794 10.1423C15.0767 9.94241 15.4106 9.63602 15.644 9.25733C15.8773 8.87864 16.0009 8.44255 16.0009 7.99771C16.0009 7.55287 15.8773 7.11677 15.644 6.73808C15.4106 6.35939 15.0767 6.053 14.6794 5.85309H14.6714ZM13.9594 8.70991L2.75942 14.3115C2.61235 14.3822 2.4472 14.4061 2.28613 14.3802C2.12505 14.3543 1.97574 14.2798 1.85823 14.1666C1.74071 14.0534 1.6606 13.9069 1.62864 13.7469C1.59668 13.5869 1.6144 13.4209 1.67942 13.2712L3.59142 8.97399C3.61617 8.9166 3.63754 8.85782 3.65542 8.79794H9.16742C9.37959 8.79794 9.58307 8.71363 9.7331 8.56355C9.88313 8.41348 9.96742 8.20994 9.96742 7.99771C9.96742 7.78547 9.88313 7.58193 9.7331 7.43186C9.58307 7.28179 9.37959 7.19748 9.16742 7.19748H3.65542C3.63754 7.13759 3.61617 7.07881 3.59142 7.02143L1.67942 2.7242C1.6144 2.57452 1.59668 2.40854 1.62864 2.24851C1.6606 2.08848 1.74071 1.94205 1.85823 1.82886C1.97574 1.71566 2.12505 1.64111 2.28613 1.6152C2.4472 1.58929 2.61235 1.61326 2.75942 1.6839L13.9594 7.2855C14.0905 7.35266 14.2004 7.45468 14.2772 7.58034C14.354 7.70601 14.3946 7.85043 14.3946 7.99771C14.3946 8.14499 14.354 8.28941 14.2772 8.41507C14.2004 8.54073 14.0905 8.64276 13.9594 8.70991Z" fill="#A2ABC5"/>
</svg>
