<svg width="14" height="12" viewBox="0 0 14 12" fill="none" xmlns="http://www.w3.org/2000/svg">
<path fill-rule="evenodd" clip-rule="evenodd" d="M4.77359 5.99999H4.8281C6.33334 5.99999 7.55358 4.79674 7.55358 3.31246V2.25761C7.55179 1.65475 7.30626 1.07749 6.8714 0.653735C6.43655 0.229979 5.84827 -0.00527936 5.23692 8.9929e-05H4.33751C3.07466 0.00377962 2.05185 1.01235 2.04811 2.25761V3.31246C2.04811 4.79674 3.26835 5.99999 4.77359 5.99999ZM10.6198 5.4961C11.7487 5.4961 12.6639 4.59366 12.6639 3.48045V2.70779C12.6639 1.77792 11.9034 1.02203 10.9605 1.01465H10.2791C9.33611 1.02203 8.57563 1.77792 8.57566 2.70779V3.48045C8.57566 4.59366 9.49084 5.4961 10.6198 5.4961ZM13.8426 7.76717L13.9516 8.29795C14.0695 8.75813 13.9694 9.24625 13.6793 9.62503C13.3892 10.0038 12.9405 10.2324 12.4594 10.2464H9.54311V10.3472C9.538 10.3724 9.53002 10.3976 9.52203 10.4228C9.50872 10.4648 9.49542 10.5068 9.49542 10.5488C9.47682 10.6128 9.45407 10.6757 9.42728 10.7369C9.40643 10.8011 9.3814 10.864 9.35233 10.925C9.29706 11.0364 9.23088 11.1421 9.15473 11.2408C9.14329 11.2577 9.12585 11.2723 9.10947 11.2859C9.08681 11.3048 9.06615 11.3221 9.06615 11.3416C9.00607 11.4098 8.94239 11.4748 8.87537 11.5364L8.76635 11.6238C8.69348 11.6814 8.61601 11.733 8.53469 11.7783L8.42567 11.8388C8.32845 11.8816 8.22826 11.9175 8.12586 11.9463H8.03729C7.89698 11.9815 7.7528 11.9995 7.60802 12H1.96628C1.35283 11.977 0.782358 11.6833 0.412539 11.2001C0.0427202 10.7169 -0.0872865 10.0954 0.058449 9.50734L0.201537 8.96983V8.79514V8.70108C0.296748 8.31091 0.507902 7.95765 0.807955 7.68654C1.15719 7.35904 1.62061 7.17625 2.10256 7.17591H6.90621C7.18534 6.75746 7.65882 6.5051 8.16675 6.50403H12.3231C13.0732 6.50606 13.7137 7.03851 13.8426 7.76717Z" fill="#90BF44"/>
</svg>
