<svg width="24" height="25" viewBox="0 0 24 25" fill="none" xmlns="http://www.w3.org/2000/svg">
<path d="M1.50005 0C1.10221 0 0.720668 0.154936 0.439354 0.430725C0.15804 0.706514 0 1.08056 0 1.47059C0 1.86061 0.15804 2.23466 0.439354 2.51045C0.720668 2.78624 1.10221 2.94118 1.50005 2.94118H3.33011L3.78763 4.73824C3.79217 4.75893 3.79717 4.77952 3.80263 4.8L5.83969 12.7853L4.50015 14.0971C2.61009 15.95 3.94813 19.1176 6.62122 19.1176H19.5007C19.8985 19.1176 20.28 18.9627 20.5613 18.6869C20.8427 18.4111 21.0007 18.0371 21.0007 17.6471C21.0007 17.257 20.8427 16.883 20.5613 16.6072C20.28 16.3314 19.8985 16.1765 19.5007 16.1765H6.62122L8.12127 14.7059H18.0006C18.2791 14.7057 18.5521 14.6296 18.7889 14.486C19.0258 14.3423 19.2172 14.1369 19.3416 13.8926L23.8418 5.06912C23.956 4.84497 24.01 4.59592 23.9985 4.3456C23.987 4.09528 23.9104 3.85199 23.7761 3.63882C23.6417 3.42564 23.4541 3.24966 23.2309 3.12756C23.0077 3.00547 22.7563 2.94131 22.5008 2.94118H6.42021L5.9552 1.11324C5.87394 0.795226 5.68662 0.512954 5.42299 0.311258C5.15937 0.109562 4.83455 8.61828e-06 4.50015 0H1.50005ZM21.0007 22.7941C21.0007 23.3792 20.7636 23.9402 20.3417 24.3539C19.9197 24.7676 19.3474 25 18.7506 25C18.1539 25 17.5816 24.7676 17.1596 24.3539C16.7376 23.9402 16.5006 23.3792 16.5006 22.7941C16.5006 22.2091 16.7376 21.648 17.1596 21.2343C17.5816 20.8206 18.1539 20.5882 18.7506 20.5882C19.3474 20.5882 19.9197 20.8206 20.3417 21.2343C20.7636 21.648 21.0007 22.2091 21.0007 22.7941ZM6.75023 25C7.34698 25 7.9193 24.7676 8.34127 24.3539C8.76324 23.9402 9.0003 23.3792 9.0003 22.7941C9.0003 22.2091 8.76324 21.648 8.34127 21.2343C7.9193 20.8206 7.34698 20.5882 6.75023 20.5882C6.15347 20.5882 5.58115 20.8206 5.15918 21.2343C4.73721 21.648 4.50015 22.2091 4.50015 22.7941C4.50015 23.3792 4.73721 23.9402 5.15918 24.3539C5.58115 24.7676 6.15347 25 6.75023 25Z" fill="#A2ABC5" fill-opacity="0.5"/>
</svg>
