<svg width="8" height="8" viewBox="0 0 8 8" fill="none" xmlns="http://www.w3.org/2000/svg">
<path fill-rule="evenodd" clip-rule="evenodd" d="M7.60688 0.535839C7.97933 0.90829 7.97933 1.51215 7.60688 1.8846L5.42011 4.07137L7.60658 6.25784C7.97903 6.63029 7.97903 7.23415 7.60658 7.6066C7.23413 7.97905 6.63027 7.97905 6.25782 7.6066L4.07135 5.42013L1.88458 7.60691C1.51213 7.97936 0.908267 7.97936 0.535817 7.60691C0.163367 7.23446 0.163366 6.6306 0.535817 6.25815L2.72259 4.07137L0.535511 1.88429C0.163061 1.51184 0.163061 0.907984 0.535511 0.535534C0.907961 0.163084 1.51182 0.163084 1.88427 0.535534L4.07135 2.72261L6.25812 0.535839C6.63057 0.163389 7.23443 0.163389 7.60688 0.535839Z" fill="white" fill-opacity="0.1"/>
</svg>
