<svg width="16" height="12" viewBox="0 0 16 12" fill="none" xmlns="http://www.w3.org/2000/svg">
<path d="M13.5535 1.00498C12.5178 0.535494 11.4104 0.194272 10.2526 0C10.1104 0.249066 9.94427 0.584059 9.82977 0.850559C8.599 0.671234 7.37953 0.671234 6.17143 0.850559C6.05693 0.584059 5.887 0.249066 5.74358 0C4.58453 0.194272 3.47583 0.536739 2.44013 1.00747C0.351096 4.06601 -0.215208 7.0486 0.0679444 9.9888C1.4535 10.9913 2.79627 11.6002 4.11638 11.9987C4.44233 11.5641 4.73303 11.1021 4.98346 10.6152C4.50651 10.4396 4.04969 10.2229 3.61804 9.97135C3.73256 9.8892 3.84456 9.80325 3.95279 9.71485C6.58549 10.9078 9.44592 10.9078 12.0472 9.71485C12.1566 9.80325 12.2686 9.8892 12.3819 9.97135C11.949 10.2241 11.4909 10.4408 11.014 10.6164C11.2644 11.1021 11.5538 11.5654 11.881 12C13.2024 11.6015 14.5464 10.9925 15.932 9.9888C16.2642 6.58035 15.3644 3.62516 13.5535 1.00498ZM5.34212 8.1806C4.55181 8.1806 3.90371 7.46575 3.90371 6.59529C3.90371 5.72479 4.53797 5.00874 5.34212 5.00874C6.14628 5.00874 6.79436 5.72354 6.78052 6.59529C6.78181 7.46575 6.14628 8.1806 5.34212 8.1806ZM10.6578 8.1806C9.86752 8.1806 9.21939 7.46575 9.21939 6.59529C9.21939 5.72479 9.85368 5.00874 10.6578 5.00874C11.462 5.00874 12.1101 5.72354 12.0962 6.59529C12.0962 7.46575 11.462 8.1806 10.6578 8.1806Z" fill="#A2ABC5" fill-opacity="0.3"/>
</svg>
