<svg width="16" height="13" viewBox="0 0 16 13" fill="none" xmlns="http://www.w3.org/2000/svg">
<path d="M10.2667 0C10.1081 0.297742 9.96671 0.605232 9.8434 0.920798C8.63171 0.719939 7.39742 0.719939 6.18573 0.920798C6.06242 0.605232 5.92107 0.297742 5.76247 0C4.62108 0.204418 3.51149 0.570508 2.46418 1.08822C0.591377 3.92117 -0.257954 7.36049 0.0683309 10.7901C1.28881 11.7518 2.65861 12.4853 4.11732 12.9581C4.44947 12.4982 4.74591 12.0112 5.00378 11.5016C4.52786 11.3177 4.07044 11.085 3.63815 10.8068C3.75671 10.7241 3.86886 10.6318 3.97357 10.5306C5.23415 11.167 6.61536 11.4975 8.01456 11.4975C9.41377 11.4975 10.795 11.167 12.0556 10.5306C12.1674 10.631 12.2792 10.7231 12.391 10.8068C11.9563 11.0828 11.4994 11.3181 11.0253 11.51C11.2725 12.0311 11.561 12.5295 11.8879 13C13.3447 12.5287 14.7122 11.7951 15.9289 10.8319C16.263 7.40172 15.413 3.95959 13.533 1.13007C12.4975 0.601647 11.3988 0.221553 10.2667 0ZM5.36316 8.83129C4.96352 8.80122 4.59053 8.61004 4.3225 8.29788C4.05446 7.98571 3.91223 7.57685 3.92565 7.15711C3.9102 6.73683 4.05174 6.32679 4.32017 6.01416C4.58861 5.70153 4.96278 5.51096 5.36316 5.48294C5.76354 5.51096 6.13771 5.70153 6.40614 6.01416C6.67458 6.32679 6.81611 6.73683 6.80067 7.15711C6.81611 7.5774 6.67458 7.98744 6.40614 8.30007C6.13771 8.6127 5.76354 8.80328 5.36316 8.83129ZM10.666 8.83129C10.2663 8.80122 9.89334 8.61004 9.62531 8.29788C9.35728 7.98571 9.21504 7.57685 9.22846 7.15711C9.21302 6.73683 9.35455 6.32679 9.62299 6.01416C9.89142 5.70153 10.2656 5.51096 10.666 5.48294C11.0671 5.50886 11.4425 5.69882 11.7113 6.01193C11.9802 6.32504 12.121 6.73627 12.1035 7.15711C12.121 7.57796 11.9802 7.98919 11.7113 8.3023C11.4425 8.61541 11.0671 8.80537 10.666 8.83129Z" fill="white"/>
</svg>
