<svg width="211" height="7" viewBox="0 0 211 7" fill="none" xmlns="http://www.w3.org/2000/svg">
<rect y="7" width="7" height="1" rx="0.5" transform="rotate(-90 0 7)" fill="#A2ABC5" fill-opacity="0.1"/>
<rect x="6" y="7" width="5" height="1" rx="0.5" transform="rotate(-90 6 7)" fill="#A2ABC5" fill-opacity="0.1"/>
<rect x="12" y="7" width="5" height="1" rx="0.5" transform="rotate(-90 12 7)" fill="#A2ABC5" fill-opacity="0.1"/>
<rect x="18" y="7" width="5" height="1" rx="0.5" transform="rotate(-90 18 7)" fill="#A2ABC5" fill-opacity="0.1"/>
<rect x="24" y="7" width="7" height="1" rx="0.5" transform="rotate(-90 24 7)" fill="#A2ABC5" fill-opacity="0.1"/>
<rect x="30" y="7" width="5" height="1" rx="0.5" transform="rotate(-90 30 7)" fill="#A2ABC5" fill-opacity="0.1"/>
<rect x="36" y="7" width="5" height="1" rx="0.5" transform="rotate(-90 36 7)" fill="#A2ABC5" fill-opacity="0.1"/>
<rect x="42" y="7" width="5" height="1" rx="0.5" transform="rotate(-90 42 7)" fill="#A2ABC5" fill-opacity="0.1"/>
<rect x="48" y="7" width="7" height="1" rx="0.5" transform="rotate(-90 48 7)" fill="#A2ABC5" fill-opacity="0.1"/>
<rect x="54" y="7" width="5" height="1" rx="0.5" transform="rotate(-90 54 7)" fill="#A2ABC5" fill-opacity="0.1"/>
<rect x="60" y="7" width="5" height="1" rx="0.5" transform="rotate(-90 60 7)" fill="#A2ABC5" fill-opacity="0.1"/>
<rect x="66" y="7" width="7" height="1" rx="0.5" transform="rotate(-90 66 7)" fill="#A2ABC5" fill-opacity="0.1"/>
<rect x="72" y="7" width="5" height="1" rx="0.5" transform="rotate(-90 72 7)" fill="#A2ABC5" fill-opacity="0.1"/>
<rect x="78" y="7" width="5" height="1" rx="0.5" transform="rotate(-90 78 7)" fill="#A2ABC5" fill-opacity="0.1"/>
<rect x="84" y="7" width="5" height="1" rx="0.5" transform="rotate(-90 84 7)" fill="#A2ABC5" fill-opacity="0.1"/>
<rect x="90" y="7" width="7" height="1" rx="0.5" transform="rotate(-90 90 7)" fill="#A2ABC5" fill-opacity="0.1"/>
<rect x="96" y="7" width="5" height="1" rx="0.5" transform="rotate(-90 96 7)" fill="#A2ABC5" fill-opacity="0.1"/>
<rect x="102" y="7" width="5" height="1" rx="0.5" transform="rotate(-90 102 7)" fill="#A2ABC5" fill-opacity="0.1"/>
<rect x="108" y="7" width="5" height="1" rx="0.5" transform="rotate(-90 108 7)" fill="#A2ABC5" fill-opacity="0.1"/>
<rect x="114" y="7" width="7" height="1" rx="0.5" transform="rotate(-90 114 7)" fill="#A2ABC5" fill-opacity="0.1"/>
<rect x="120" y="7" width="5" height="1" rx="0.5" transform="rotate(-90 120 7)" fill="#A2ABC5" fill-opacity="0.1"/>
<rect x="126" y="7" width="5" height="1" rx="0.5" transform="rotate(-90 126 7)" fill="#A2ABC5" fill-opacity="0.1"/>
<rect x="132" y="7" width="5" height="1" rx="0.5" transform="rotate(-90 132 7)" fill="#A2ABC5" fill-opacity="0.1"/>
<rect x="138" y="7" width="7" height="1" rx="0.5" transform="rotate(-90 138 7)" fill="#A2ABC5" fill-opacity="0.1"/>
<rect x="144" y="7" width="5" height="1" rx="0.5" transform="rotate(-90 144 7)" fill="#A2ABC5" fill-opacity="0.1"/>
<rect x="150" y="7" width="5" height="1" rx="0.5" transform="rotate(-90 150 7)" fill="#A2ABC5" fill-opacity="0.1"/>
<rect x="156" y="7" width="5" height="1" rx="0.5" transform="rotate(-90 156 7)" fill="#A2ABC5" fill-opacity="0.1"/>
<rect x="162" y="7" width="7" height="1" rx="0.5" transform="rotate(-90 162 7)" fill="#A2ABC5" fill-opacity="0.1"/>
<rect x="168" y="7" width="5" height="1" rx="0.5" transform="rotate(-90 168 7)" fill="#A2ABC5" fill-opacity="0.1"/>
<rect x="174" y="7" width="5" height="1" rx="0.5" transform="rotate(-90 174 7)" fill="#A2ABC5" fill-opacity="0.1"/>
<rect x="180" y="7" width="5" height="1" rx="0.5" transform="rotate(-90 180 7)" fill="#A2ABC5" fill-opacity="0.1"/>
<rect x="186" y="7" width="7" height="1" rx="0.5" transform="rotate(-90 186 7)" fill="#A2ABC5" fill-opacity="0.1"/>
<rect x="192" y="7" width="5" height="1" rx="0.5" transform="rotate(-90 192 7)" fill="#A2ABC5" fill-opacity="0.1"/>
<rect x="198" y="7" width="5" height="1" rx="0.5" transform="rotate(-90 198 7)" fill="#A2ABC5" fill-opacity="0.1"/>
<rect x="204" y="7" width="5" height="1" rx="0.5" transform="rotate(-90 204 7)" fill="#A2ABC5" fill-opacity="0.1"/>
<rect x="210" y="7" width="7" height="1" rx="0.5" transform="rotate(-90 210 7)" fill="#A2ABC5" fill-opacity="0.1"/>
</svg>
