<svg width="20" height="20" viewBox="0 0 20 20" fill="none" xmlns="http://www.w3.org/2000/svg">
<path d="M10 0C4.486 0 0 4.486 0 10C0 15.514 4.486 20 10 20C15.514 20 20 15.514 20 10C20 4.486 15.514 0 10 0ZM6 10.414L4.707 11.707L3.293 10.293L4.586 9L3.293 7.707L4.707 6.293L6 7.586L7.293 6.293L8.707 7.707L7.414 9L8.707 10.293L7.293 11.707L6 10.414ZM12 16H8V14H12V16ZM16.707 10.293L15.293 11.707L14 10.414L12.707 11.707L11.293 10.293L12.586 9L11.293 7.707L12.707 6.293L14 7.586L15.293 6.293L16.707 7.707L15.414 9L16.707 10.293Z" fill="#A2ABC5" fill-opacity="0.5"/>
</svg>
