<svg width="14" height="12" viewBox="0 0 14 12" fill="none" xmlns="http://www.w3.org/2000/svg">
<path fill-rule="evenodd" clip-rule="evenodd" d="M4.77457 5.99999H4.82907C6.33431 5.99999 7.55455 4.79674 7.55455 3.31246V2.25761C7.55276 1.65475 7.30724 1.07749 6.87238 0.653735C6.43752 0.229979 5.84925 -0.00527936 5.2379 8.9929e-05H4.33849C3.07564 0.00377962 2.05283 1.01235 2.04909 2.25761V3.31246C2.04909 4.79674 3.26933 5.99999 4.77457 5.99999ZM10.6207 5.4961C11.7497 5.4961 12.6649 4.59366 12.6649 3.48045V2.70779C12.6649 1.77792 11.9044 1.02203 10.9614 1.01465H10.2801C9.33708 1.02203 8.57661 1.77792 8.57664 2.70779V3.48045C8.57664 4.59366 9.49181 5.4961 10.6207 5.4961ZM13.8435 7.76717L13.9525 8.29795C14.0705 8.75813 13.9704 9.24625 13.6803 9.62503C13.3902 10.0038 12.9415 10.2324 12.4604 10.2464H9.54409V10.3472C9.53898 10.3724 9.53099 10.3976 9.52301 10.4228C9.5097 10.4648 9.49639 10.5068 9.49639 10.5488C9.4778 10.6128 9.45504 10.6757 9.42826 10.7369C9.40741 10.8011 9.38237 10.864 9.3533 10.925C9.29804 11.0364 9.23186 11.1421 9.15571 11.2408C9.14427 11.2577 9.12683 11.2723 9.11044 11.2859C9.08778 11.3048 9.06713 11.3221 9.06713 11.3416C9.00705 11.4098 8.94337 11.4748 8.87635 11.5364L8.76733 11.6238C8.69446 11.6814 8.61699 11.733 8.53566 11.7783L8.42664 11.8388C8.32942 11.8816 8.22924 11.9175 8.12684 11.9463H8.03826C7.89795 11.9815 7.75378 11.9995 7.609 12H1.96726C1.3538 11.977 0.783335 11.6833 0.413516 11.2001C0.0436968 10.7169 -0.08631 10.0954 0.0594255 9.50734L0.202513 8.96983V8.79514V8.70108C0.297725 8.31091 0.508878 7.95765 0.808932 7.68654C1.15817 7.35904 1.62159 7.17625 2.10353 7.17591H6.90719C7.18632 6.75746 7.6598 6.5051 8.16772 6.50403H12.3241C13.0742 6.50606 13.7147 7.03851 13.8435 7.76717Z" fill="#A2ABC5"/>
</svg>
