<svg width="16" height="18" viewBox="0 0 16 18" fill="none" xmlns="http://www.w3.org/2000/svg">
<path d="M8 17L8.77578 16.6622C10.4022 15.9586 11.8066 14.8197 12.8369 13.3687C13.8671 11.9178 14.484 10.2103 14.6206 8.43111L14.9996 3.52444C15.0055 3.32139 14.9422 3.12244 14.8203 2.96071C14.6984 2.79897 14.5252 2.68422 14.3296 2.63556L8 1L1.67036 2.6C1.47477 2.64867 1.3016 2.76342 1.1797 2.92515C1.05779 3.08688 0.994507 3.28584 1.00037 3.48889L1.37945 8.39556C1.51602 10.1747 2.13286 11.8823 3.16313 13.3332C4.19341 14.7841 5.59783 15.9231 7.22422 16.6267L8 17Z" stroke="#A2ABC5" stroke-width="2" stroke-linecap="round" stroke-linejoin="round"/>
</svg>
