<svg width="30" height="30" viewBox="0 0 30 30" fill="none" xmlns="http://www.w3.org/2000/svg">
<path d="M5.0418 0C6.11576 4.5919 3.6 6.23131 0 6.99443C4.54791 8.59305 2.35949 10.1785 1.41415 11.7705C5.65916 11.435 7.0418 13.4678 7.03537 16.6585C9.38264 15.3362 10.3537 12.56 16.4952 15.2375C14.9904 12.4021 14.4437 10.2838 17.8006 7.44178C15.2476 6.50761 12.8489 5.45502 14.0643 2.10188C10.4437 4.5919 7.70418 2.46502 5.0418 0ZM9.34405 4.46625C10.4051 4.46677 11.4225 4.89833 12.1726 5.66602C12.9227 6.43372 13.3441 7.47472 13.3441 8.56015C13.3435 9.64524 12.9219 10.6857 12.1719 11.453C11.4219 12.2203 10.4048 12.6516 9.34405 12.6521C8.28334 12.6516 7.26622 12.2203 6.51619 11.453C5.76615 10.6857 5.34456 9.64524 5.34405 8.56015C5.34405 7.47472 5.76542 6.43372 6.51551 5.66602C7.2656 4.89833 8.28301 4.46677 9.34405 4.46625ZM18.7717 12.6258C19.8842 17.9742 17.164 19.0728 13.0482 18.6255C15.0354 20.7241 16.2765 23.099 14.0836 26.7238C16.9968 25.987 19.7749 25.8291 21.4084 30C22.8553 26.9672 25.5756 26.5528 28.9132 27.4541C27.7621 25.6318 26.4695 23.8095 30 22.0069C27.6206 20.3294 25.2219 18.6716 26.8232 13.8165C23.91 17.1716 21.2476 16.4545 18.7717 12.6258ZM21.8199 17.6716C22.8806 17.6721 23.8978 18.1034 24.6478 18.8707C25.3978 19.6379 25.8194 20.6784 25.8199 21.7635C25.8194 22.8486 25.3978 23.8891 24.6478 24.6564C23.8978 25.4236 22.8806 25.8549 21.8199 25.8554C20.7592 25.8549 19.7421 25.4236 18.9921 24.6564C18.242 23.8891 17.8204 22.8486 17.8199 21.7635C17.8204 20.6784 18.242 19.6379 18.9921 18.8707C19.7421 18.1034 20.7592 17.6721 21.8199 17.6716Z" fill="url(#paint0_linear_672_15142)"/>
<defs>
<linearGradient id="paint0_linear_672_15142" x1="15" y1="0" x2="15" y2="30" gradientUnits="userSpaceOnUse">
<stop stop-color="#FCB35E"/>
<stop offset="1" stop-color="#FCB35E" stop-opacity="0.5"/>
</linearGradient>
</defs>
</svg>
