<svg width="30" height="30" viewBox="0 0 30 30" fill="none" xmlns="http://www.w3.org/2000/svg">
<path d="M16.5 19C16.1021 19 15.7206 18.8468 15.4393 18.574C15.158 18.3012 15 17.9312 15 17.5455V14.5055L2.70003 13.2982C1.95746 13.2258 1.26937 12.8877 0.770114 12.3497C0.270861 11.8118 -0.00370226 11.1128 3.77108e-05 10.3891V5.90909C3.77108e-05 5.13755 0.316107 4.39761 0.878714 3.85205C1.44132 3.30649 2.20438 3 3.00002 3H6.00001C6.39784 3 6.77936 3.15325 7.06067 3.42603C7.34197 3.69881 7.50001 4.06878 7.50001 4.45455C7.50001 4.84031 7.34197 5.21028 7.06067 5.48306C6.77936 5.75584 6.39784 5.90909 6.00001 5.90909H3.00002V10.4036L15.3 11.6109C16.0425 11.6833 16.7306 12.0214 17.2299 12.5593C17.7291 13.0973 18.0037 13.7963 18 14.52V17.5455C18 17.9312 17.8419 18.3012 17.5606 18.574C17.2793 18.8468 16.8978 19 16.5 19Z" fill="#F5AD57"/>
<path d="M27.0588 0H7.94118C7.16113 0 6.41303 0.31607 5.86145 0.87868C5.30987 1.44129 5 2.20435 5 3V6C5 6.79565 5.30987 7.55871 5.86145 8.12132C6.41303 8.68393 7.16113 9 7.94118 9H27.0588C27.8389 9 28.587 8.68393 29.1385 8.12132C29.6901 7.55871 30 6.79565 30 6V3C30 2.20435 29.6901 1.44129 29.1385 0.87868C28.587 0.31607 27.8389 0 27.0588 0ZM16.7647 30C15.9847 30 15.2366 29.6839 14.685 29.1213C14.1334 28.5587 13.8235 27.7956 13.8235 27V18C13.8235 17.6022 13.9785 17.2206 14.2543 16.9393C14.53 16.658 14.9041 16.5 15.2941 16.5H18.2353C18.6253 16.5 18.9994 16.658 19.2752 16.9393C19.5509 17.2206 19.7059 17.6022 19.7059 18V27C19.7059 27.7956 19.396 28.5587 18.8444 29.1213C18.2929 29.6839 17.5448 30 16.7647 30Z" fill="#6752AD"/>
</svg>
