<svg width="25" height="20" viewBox="0 0 25 20" fill="none" xmlns="http://www.w3.org/2000/svg">
<path d="M24.1935 3.05208L19.2731 0.114583C19.1522 0.0404155 19.0148 0.000892297 18.8747 0H15.6873C15.476 0 15.2733 0.0877975 15.1239 0.244078C14.9745 0.400358 14.8905 0.61232 14.8905 0.833333C14.8905 1.49637 14.6386 2.13226 14.1903 2.6011C13.742 3.06994 13.134 3.33333 12.5 3.33333C11.866 3.33333 11.258 3.06994 10.8097 2.6011C10.3614 2.13226 10.1095 1.49637 10.1095 0.833333C10.1095 0.61232 10.0255 0.400358 9.87611 0.244078C9.72668 0.0877975 9.524 0 9.31266 0H6.12533C5.9852 0.000892297 5.84777 0.0404155 5.72691 0.114583L0.806459 3.05208C0.451676 3.26108 0.1875 3.60496 0.0687925 4.01231C-0.0499148 4.41966 -0.0140313 4.85918 0.168991 5.23958L2.00171 9.08333C2.1346 9.35914 2.33816 9.5909 2.58966 9.75276C2.84117 9.91463 3.13074 10.0002 3.42605 10H5.32849V18.3333C5.32849 18.7754 5.4964 19.1993 5.79527 19.5118C6.09414 19.8244 6.49949 20 6.92216 20H18.0778C18.5005 20 18.9059 19.8244 19.2047 19.5118C19.5036 19.1993 19.6715 18.7754 19.6715 18.3333V10H21.5739C21.8693 10.0002 22.1588 9.91463 22.4103 9.75276C22.6618 9.5909 22.8654 9.35914 22.9983 9.08333L24.831 5.23958C25.014 4.85918 25.0499 4.41966 24.9312 4.01231C24.8125 3.60496 24.5483 3.26108 24.1935 3.05208Z" fill="#A2ABC5"/>
</svg>
