<svg width="25" height="25" viewBox="0 0 25 25" fill="none" xmlns="http://www.w3.org/2000/svg">
<path fill-rule="evenodd" clip-rule="evenodd" d="M0.653961 3.27606C0 4.55953 0 6.23969 0 9.6V15.4C0 18.7603 0 20.4405 0.653961 21.7239C1.2292 22.8529 2.14708 23.7708 3.27606 24.346C4.55953 25 6.23969 25 9.6 25H15.4C18.7603 25 20.4405 25 21.7239 24.346C22.8529 23.7708 23.7708 22.8529 24.346 21.7239C25 20.4405 25 18.7603 25 15.4V9.6C25 6.23969 25 4.55953 24.346 3.27606C23.7708 2.14708 22.8529 1.2292 21.7239 0.653961C20.4405 0 18.7603 0 15.4 0H9.6C6.23969 0 4.55953 0 3.27606 0.653961C2.14708 1.2292 1.2292 2.14708 0.653961 3.27606ZM17.1267 8.41838C17.2055 8.4545 17.277 8.50744 17.3372 8.57413C17.4028 8.64075 17.4552 8.72162 17.4911 8.81162C17.5269 8.90163 17.5454 8.99882 17.5454 9.09708C17.5454 9.19534 17.5269 9.29254 17.4911 9.38254C17.4552 9.47255 17.4028 9.55341 17.3372 9.62004L12.0588 15.4259C11.9986 15.4926 11.9271 15.5455 11.8483 15.5817C11.7694 15.6178 11.6849 15.6364 11.5995 15.6364C11.5141 15.6364 11.4296 15.6178 11.3507 15.5817C11.2719 15.5455 11.2004 15.4926 11.1402 15.4259L8.65628 12.6937C8.59384 12.6274 8.5439 12.5482 8.50929 12.4606C8.47469 12.373 8.45611 12.2788 8.45461 12.1834C8.4531 12.0879 8.46871 11.993 8.50054 11.9042C8.53237 11.8154 8.57979 11.7343 8.64011 11.6656C8.70042 11.5969 8.77244 11.542 8.85205 11.5039C8.93167 11.4659 9.01732 11.4454 9.10411 11.4438C9.19091 11.4421 9.27715 11.4593 9.35792 11.4943C9.43868 11.5293 9.51239 11.5815 9.57482 11.6478L11.5995 13.882L16.4186 8.57413C16.4788 8.50744 16.5503 8.4545 16.6291 8.41838C16.708 8.38226 16.7925 8.36366 16.8779 8.36366C16.9633 8.36366 17.0478 8.38226 17.1267 8.41838Z" fill="#92C145"/>
</svg>
