<svg width="110" height="110" viewBox="0 0 110 110" fill="none" xmlns="http://www.w3.org/2000/svg">
<mask id="path-1-inside-1_332_10892" fill="white">
<path d="M0 32C0 20.799 0 15.1984 2.17987 10.9202C4.09734 7.15695 7.15695 4.09734 10.9202 2.17987C15.1984 0 20.799 0 32 0H78C89.201 0 94.8016 0 99.0798 2.17987C102.843 4.09734 105.903 7.15695 107.82 10.9202C110 15.1984 110 20.799 110 32V78C110 89.201 110 94.8016 107.82 99.0798C105.903 102.843 102.843 105.903 99.0798 107.82C94.8016 110 89.201 110 78 110H32C20.799 110 15.1984 110 10.9202 107.82C7.15695 105.903 4.09734 102.843 2.17987 99.0798C0 94.8016 0 89.201 0 78V32Z"/>
</mask>
<path d="M10.9202 107.82L11.6012 106.484L10.9202 107.82ZM107.82 99.0798L109.157 99.7608L107.82 99.0798ZM99.0798 107.82L99.7608 109.157L99.0798 107.82ZM99.0798 2.17987L99.7608 0.84336L99.0798 2.17987ZM107.82 10.9202L109.157 10.2392L107.82 10.9202ZM10.9202 2.17987L10.2392 0.84336L10.9202 2.17987ZM32 108.5C31.389 108.5 30.7953 108.5 30.2175 108.5L30.2157 111.5C30.7945 111.5 31.3892 111.5 32 111.5V108.5ZM26.6658 108.489C25.3996 108.48 24.227 108.464 23.1355 108.436L23.0589 111.435C24.1754 111.464 25.3678 111.48 26.6448 111.489L26.6658 108.489ZM19.6438 108.282C18.3794 108.195 17.2581 108.074 16.2454 107.908L15.7605 110.869C16.8899 111.054 18.1083 111.183 19.4379 111.275L19.6438 108.282ZM13.062 107.114C12.5493 106.929 12.0652 106.72 11.6012 106.484L10.2392 109.157C10.8195 109.452 11.4193 109.711 12.0454 109.936L13.062 107.114ZM11.6012 106.484C11.1684 106.263 10.7456 106.026 10.3337 105.774L8.76628 108.332C9.24497 108.625 9.73625 108.9 10.2392 109.157L11.6012 106.484ZM7.98522 104.068C7.24828 103.438 6.56189 102.752 5.93247 102.015L3.65127 103.963C4.38275 104.82 5.18042 105.617 6.03685 106.349L7.98522 104.068ZM4.22615 99.6663C3.97376 99.2544 3.73691 98.8316 3.51638 98.3988L0.84336 99.7608C1.09963 100.264 1.37488 100.755 1.66822 101.234L4.22615 99.6663ZM3.51638 98.3988C3.27992 97.9348 3.07102 97.4507 2.88636 96.938L0.063863 97.9546C0.28937 98.5807 0.547663 99.1805 0.84336 99.7608L3.51638 98.3988ZM2.0917 93.7546C1.92581 92.7419 1.80509 91.6206 1.71814 90.3562L-1.27479 90.5621C-1.18334 91.8917 -1.05385 93.1101 -0.868841 94.2395L2.0917 93.7546ZM1.56376 86.8645C1.5359 85.773 1.52018 84.6004 1.51133 83.3342L-1.48859 83.3552C-1.47967 84.6322 -1.46376 85.8246 -1.43526 86.9411L1.56376 86.8645ZM1.50035 79.7825C1.5 79.2048 1.5 78.611 1.5 78H-1.5C-1.5 78.6108 -1.5 79.2055 -1.49965 79.7843L1.50035 79.7825ZM1.5 78V76.0833H-1.5V78H1.5ZM1.5 72.25V68.4167H-1.5V72.25H1.5ZM1.5 64.5833V60.75H-1.5V64.5833H1.5ZM1.5 56.9167V53.0833H-1.5V56.9167H1.5ZM1.5 49.25V45.4167H-1.5V49.25H1.5ZM1.5 41.5833V37.75H-1.5V41.5833H1.5ZM1.5 33.9167V32H-1.5V33.9167H1.5ZM1.5 32C1.5 31.389 1.5 30.7953 1.50035 30.2175L-1.49965 30.2157C-1.5 30.7945 -1.5 31.3892 -1.5 32H1.5ZM1.51133 26.6658C1.52018 25.3996 1.5359 24.227 1.56376 23.1355L-1.43526 23.0589C-1.46376 24.1754 -1.47967 25.3678 -1.48859 26.6448L1.51133 26.6658ZM1.71814 19.6438C1.80509 18.3794 1.92581 17.2581 2.0917 16.2454L-0.868842 15.7605C-1.05385 16.8899 -1.18334 18.1083 -1.27479 19.4379L1.71814 19.6438ZM2.88636 13.062C3.07102 12.5493 3.27992 12.0652 3.51638 11.6012L0.84336 10.2392C0.547663 10.8195 0.28937 11.4193 0.0638628 12.0454L2.88636 13.062ZM3.51638 11.6012C3.73691 11.1684 3.97376 10.7456 4.22615 10.3337L1.66822 8.76628C1.37488 9.24497 1.09963 9.73625 0.84336 10.2392L3.51638 11.6012ZM5.93248 7.98522C6.56189 7.24828 7.24828 6.56189 7.98522 5.93247L6.03685 3.65127C5.18042 4.38275 4.38275 5.18042 3.65127 6.03685L5.93248 7.98522ZM10.3337 4.22615C10.7456 3.97376 11.1684 3.73691 11.6012 3.51638L10.2392 0.84336C9.73625 1.09963 9.24497 1.37488 8.76628 1.66822L10.3337 4.22615ZM11.6012 3.51638C12.0652 3.27992 12.5493 3.07102 13.062 2.88636L12.0454 0.063863C11.4193 0.28937 10.8195 0.547663 10.2392 0.84336L11.6012 3.51638ZM16.2454 2.0917C17.2581 1.92581 18.3794 1.80509 19.6438 1.71814L19.4379 -1.27479C18.1083 -1.18334 16.8899 -1.05385 15.7605 -0.868841L16.2454 2.0917ZM23.1355 1.56376C24.227 1.5359 25.3996 1.52018 26.6658 1.51133L26.6448 -1.48859C25.3678 -1.47967 24.1754 -1.46376 23.0589 -1.43526L23.1355 1.56376ZM30.2175 1.50035C30.7953 1.5 31.389 1.5 32 1.5V-1.5C31.3892 -1.5 30.7945 -1.5 30.2157 -1.49965L30.2175 1.50035ZM32 1.5H33.9167V-1.5H32V1.5ZM37.75 1.5H41.5833V-1.5H37.75V1.5ZM45.4167 1.5H49.25V-1.5H45.4167V1.5ZM53.0833 1.5H56.9167V-1.5H53.0833V1.5ZM60.75 1.5H64.5833V-1.5H60.75V1.5ZM68.4167 1.5H72.25V-1.5H68.4167V1.5ZM76.0833 1.5H78V-1.5H76.0833V1.5ZM78 1.5C78.611 1.5 79.2047 1.5 79.7825 1.50035L79.7843 -1.49965C79.2055 -1.5 78.6108 -1.5 78 -1.5V1.5ZM83.3342 1.51133C84.6004 1.52018 85.773 1.5359 86.8645 1.56376L86.9411 -1.43526C85.8246 -1.46376 84.6322 -1.47967 83.3552 -1.48859L83.3342 1.51133ZM90.3562 1.71814C91.6206 1.80509 92.7419 1.92581 93.7546 2.0917L94.2395 -0.868842C93.1101 -1.05385 91.8917 -1.18334 90.5621 -1.27479L90.3562 1.71814ZM96.938 2.88636C97.4507 3.07102 97.9348 3.27992 98.3988 3.51638L99.7608 0.84336C99.1805 0.547663 98.5807 0.28937 97.9546 0.0638628L96.938 2.88636ZM98.3988 3.51638C98.8316 3.73691 99.2544 3.97376 99.6663 4.22615L101.234 1.66822C100.755 1.37488 100.264 1.09963 99.7608 0.84336L98.3988 3.51638ZM102.015 5.93248C102.752 6.56189 103.438 7.24828 104.068 7.98522L106.349 6.03685C105.617 5.18042 104.82 4.38275 103.963 3.65127L102.015 5.93248ZM105.774 10.3337C106.026 10.7456 106.263 11.1684 106.484 11.6012L109.157 10.2392C108.9 9.73625 108.625 9.24497 108.332 8.76628L105.774 10.3337ZM106.484 11.6012C106.72 12.0652 106.929 12.5493 107.114 13.062L109.936 12.0454C109.711 11.4193 109.452 10.8195 109.157 10.2392L106.484 11.6012ZM107.908 16.2454C108.074 17.2581 108.195 18.3794 108.282 19.6438L111.275 19.4379C111.183 18.1083 111.054 16.8899 110.869 15.7605L107.908 16.2454ZM108.436 23.1355C108.464 24.227 108.48 25.3996 108.489 26.6658L111.489 26.6448C111.48 25.3678 111.464 24.1754 111.435 23.0589L108.436 23.1355ZM108.5 30.2175C108.5 30.7953 108.5 31.389 108.5 32H111.5C111.5 31.3892 111.5 30.7945 111.5 30.2157L108.5 30.2175ZM108.5 32V33.9167H111.5V32H108.5ZM108.5 37.75V41.5833H111.5V37.75H108.5ZM108.5 45.4167V49.25H111.5V45.4167H108.5ZM108.5 53.0833V56.9167H111.5V53.0833H108.5ZM108.5 60.75V64.5833H111.5V60.75H108.5ZM108.5 68.4167V72.25H111.5V68.4167H108.5ZM108.5 76.0833V78H111.5V76.0833H108.5ZM108.5 78C108.5 78.611 108.5 79.2047 108.5 79.7825L111.5 79.7843C111.5 79.2055 111.5 78.6108 111.5 78H108.5ZM108.489 83.3342C108.48 84.6004 108.464 85.773 108.436 86.8645L111.435 86.9411C111.464 85.8246 111.48 84.6322 111.489 83.3552L108.489 83.3342ZM108.282 90.3562C108.195 91.6206 108.074 92.7419 107.908 93.7546L110.869 94.2395C111.054 93.1101 111.183 91.8917 111.275 90.5621L108.282 90.3562ZM107.114 96.938C106.929 97.4507 106.72 97.9348 106.484 98.3988L109.157 99.7608C109.452 99.1805 109.711 98.5807 109.936 97.9546L107.114 96.938ZM106.484 98.3988C106.263 98.8316 106.026 99.2544 105.774 99.6663L108.332 101.234C108.625 100.755 108.9 100.264 109.157 99.7608L106.484 98.3988ZM104.068 102.015C103.438 102.752 102.752 103.438 102.015 104.068L103.963 106.349C104.82 105.617 105.617 104.82 106.349 103.963L104.068 102.015ZM99.6663 105.774C99.2544 106.026 98.8316 106.263 98.3988 106.484L99.7608 109.157C100.264 108.9 100.755 108.625 101.234 108.332L99.6663 105.774ZM98.3988 106.484C97.9348 106.72 97.4507 106.929 96.938 107.114L97.9546 109.936C98.5807 109.711 99.1805 109.452 99.7608 109.157L98.3988 106.484ZM93.7546 107.908C92.7419 108.074 91.6206 108.195 90.3562 108.282L90.5621 111.275C91.8917 111.183 93.1101 111.054 94.2395 110.869L93.7546 107.908ZM86.8645 108.436C85.773 108.464 84.6004 108.48 83.3342 108.489L83.3552 111.489C84.6322 111.48 85.8246 111.464 86.9411 111.435L86.8645 108.436ZM79.7825 108.5C79.2048 108.5 78.611 108.5 78 108.5V111.5C78.6108 111.5 79.2055 111.5 79.7843 111.5L79.7825 108.5ZM78 108.5H76.0833V111.5H78V108.5ZM72.25 108.5H68.4167V111.5H72.25V108.5ZM64.5833 108.5H60.75V111.5H64.5833V108.5ZM56.9167 108.5H53.0833V111.5H56.9167V108.5ZM49.25 108.5H45.4167V111.5H49.25V108.5ZM41.5833 108.5H37.75V111.5H41.5833V108.5ZM33.9167 108.5H32V111.5H33.9167V108.5ZM10.9202 107.82L12.2822 105.147L10.9202 107.82ZM107.82 99.0798L110.493 100.442L107.82 99.0798ZM99.0798 107.82L100.442 110.493L99.0798 107.82ZM99.0798 2.17987L100.442 -0.49315L99.0798 2.17987ZM107.82 10.9202L110.493 9.55822L107.82 10.9202ZM10.9202 2.17987L9.55822 -0.49315L10.9202 2.17987ZM32 107C31.3889 107 30.7956 107 30.2184 107L30.2148 113C30.7941 113 31.3893 113 32 113V107ZM26.6763 106.989C25.4154 106.98 24.2528 106.964 23.1738 106.937L23.0207 112.935C24.1495 112.964 25.3519 112.98 26.6344 112.989L26.6763 106.989ZM19.7467 106.785C18.515 106.701 17.4423 106.584 16.4879 106.428L15.518 112.349C16.7057 112.544 17.9727 112.678 19.335 112.771L19.7467 106.785ZM13.5703 105.702C13.1143 105.538 12.6881 105.354 12.2822 105.147L9.55822 110.493C10.1967 110.818 10.8543 111.101 11.5371 111.347L13.5703 105.702ZM12.2822 105.147C11.8844 104.944 11.496 104.727 11.1175 104.495L7.98255 109.611C8.49464 109.925 9.02019 110.219 9.55822 110.493L12.2822 105.147ZM8.9594 102.927C8.2822 102.349 7.65146 101.718 7.07307 101.041L2.51067 104.937C3.29318 105.854 4.14649 106.707 5.06267 107.489L8.9594 102.927ZM5.50512 98.8825C5.2732 98.504 5.05555 98.1156 4.85289 97.7178L-0.49315 100.442C-0.219011 100.98 0.0754452 101.505 0.389249 102.017L5.50512 98.8825ZM4.85289 97.7178C4.64605 97.3119 4.46184 96.8857 4.2976 96.4297L-1.34738 98.4629C-1.10145 99.1457 -0.818467 99.8033 -0.49315 100.442L4.85289 97.7178ZM3.57197 93.5121C3.41564 92.5577 3.29931 91.485 3.2146 90.2533L-2.77126 90.665C-2.67756 92.0273 -2.54367 93.2943 -2.34911 94.482L3.57197 93.5121ZM3.06327 86.8262C3.03573 85.7472 3.0201 84.5846 3.0113 83.3237L-2.98856 83.3656C-2.9796 84.6481 -2.96359 85.8505 -2.93478 86.9793L3.06327 86.8262ZM3.00035 79.7816C3 79.2044 3 78.6111 3 78H-3C-3 78.6107 -3 79.2059 -2.99965 79.7852L3.00035 79.7816ZM3 78V76.0833H-3V78H3ZM3 72.25V68.4167H-3V72.25H3ZM3 64.5833V60.75H-3V64.5833H3ZM3 56.9167V53.0833H-3V56.9167H3ZM3 49.25V45.4167H-3V49.25H3ZM3 41.5833V37.75H-3V41.5833H3ZM3 33.9167V32H-3V33.9167H3ZM3 32C3 31.3889 3 30.7956 3.00035 30.2184L-2.99965 30.2148C-3 30.7941 -3 31.3893 -3 32H3ZM3.0113 26.6763C3.0201 25.4154 3.03573 24.2528 3.06327 23.1738L-2.93478 23.0207C-2.96359 24.1495 -2.9796 25.3519 -2.98856 26.6344L3.0113 26.6763ZM3.2146 19.7467C3.29931 18.515 3.41564 17.4423 3.57197 16.4879L-2.34911 15.518C-2.54367 16.7057 -2.67756 17.9727 -2.77126 19.335L3.2146 19.7467ZM4.2976 13.5703C4.46184 13.1143 4.64605 12.6881 4.85289 12.2822L-0.49315 9.55822C-0.818467 10.1967 -1.10145 10.8543 -1.34738 11.5371L4.2976 13.5703ZM4.85289 12.2822C5.05555 11.8844 5.2732 11.496 5.50512 11.1175L0.389249 7.98255C0.0754454 8.49464 -0.219011 9.02019 -0.49315 9.55822L4.85289 12.2822ZM7.07307 8.9594C7.65146 8.2822 8.28221 7.65146 8.9594 7.07307L5.06267 2.51067C4.14649 3.29318 3.29318 4.14649 2.51067 5.06267L7.07307 8.9594ZM11.1175 5.50512C11.496 5.2732 11.8844 5.05555 12.2822 4.85289L9.55822 -0.49315C9.02019 -0.219011 8.49464 0.0754452 7.98255 0.389249L11.1175 5.50512ZM12.2822 4.85289C12.6881 4.64605 13.1143 4.46184 13.5703 4.2976L11.5371 -1.34738C10.8543 -1.10145 10.1967 -0.818467 9.55822 -0.49315L12.2822 4.85289ZM16.4879 3.57197C17.4423 3.41564 18.515 3.29931 19.7467 3.2146L19.335 -2.77126C17.9727 -2.67756 16.7057 -2.54367 15.518 -2.34911L16.4879 3.57197ZM23.1738 3.06327C24.2528 3.03573 25.4154 3.0201 26.6763 3.0113L26.6344 -2.98856C25.3519 -2.9796 24.1495 -2.96359 23.0207 -2.93478L23.1738 3.06327ZM30.2184 3.00035C30.7956 3 31.3889 3 32 3V-3C31.3893 -3 30.7941 -3 30.2148 -2.99965L30.2184 3.00035ZM32 3H33.9167V-3H32V3ZM37.75 3H41.5833V-3H37.75V3ZM45.4167 3H49.25V-3H45.4167V3ZM53.0833 3H56.9167V-3H53.0833V3ZM60.75 3H64.5833V-3H60.75V3ZM68.4167 3H72.25V-3H68.4167V3ZM76.0833 3H78V-3H76.0833V3ZM78 3C78.6111 3 79.2044 3 79.7816 3.00035L79.7852 -2.99965C79.2059 -3 78.6107 -3 78 -3V3ZM83.3237 3.0113C84.5846 3.0201 85.7472 3.03573 86.8262 3.06327L86.9793 -2.93478C85.8505 -2.96359 84.6481 -2.9796 83.3656 -2.98856L83.3237 3.0113ZM90.2533 3.2146C91.485 3.29931 92.5577 3.41564 93.5121 3.57197L94.482 -2.34911C93.2943 -2.54367 92.0273 -2.67756 90.665 -2.77126L90.2533 3.2146ZM96.4297 4.2976C96.8857 4.46184 97.3119 4.64605 97.7178 4.85289L100.442 -0.49315C99.8033 -0.818467 99.1457 -1.10145 98.4629 -1.34738L96.4297 4.2976ZM97.7178 4.85289C98.1156 5.05555 98.504 5.2732 98.8825 5.50512L102.017 0.389249C101.505 0.0754454 100.98 -0.219011 100.442 -0.49315L97.7178 4.85289ZM101.041 7.07307C101.718 7.65146 102.349 8.28221 102.927 8.9594L107.489 5.06267C106.707 4.14649 105.854 3.29318 104.937 2.51067L101.041 7.07307ZM104.495 11.1175C104.727 11.496 104.944 11.8844 105.147 12.2822L110.493 9.55822C110.219 9.02019 109.925 8.49464 109.611 7.98255L104.495 11.1175ZM105.147 12.2822C105.354 12.6881 105.538 13.1143 105.702 13.5703L111.347 11.5371C111.101 10.8543 110.818 10.1967 110.493 9.55822L105.147 12.2822ZM106.428 16.4879C106.584 17.4423 106.701 18.515 106.785 19.7467L112.771 19.335C112.678 17.9727 112.544 16.7057 112.349 15.518L106.428 16.4879ZM106.937 23.1738C106.964 24.2528 106.98 25.4154 106.989 26.6763L112.989 26.6344C112.98 25.3519 112.964 24.1495 112.935 23.0207L106.937 23.1738ZM107 30.2184C107 30.7956 107 31.3889 107 32H113C113 31.3893 113 30.7941 113 30.2148L107 30.2184ZM107 32V33.9167H113V32H107ZM107 37.75V41.5833H113V37.75H107ZM107 45.4167V49.25H113V45.4167H107ZM107 53.0833V56.9167H113V53.0833H107ZM107 60.75V64.5833H113V60.75H107ZM107 68.4167V72.25H113V68.4167H107ZM107 76.0833V78H113V76.0833H107ZM107 78C107 78.6111 107 79.2044 107 79.7816L113 79.7852C113 79.2059 113 78.6107 113 78H107ZM106.989 83.3237C106.98 84.5846 106.964 85.7472 106.937 86.8262L112.935 86.9793C112.964 85.8505 112.98 84.6481 112.989 83.3656L106.989 83.3237ZM106.785 90.2533C106.701 91.485 106.584 92.5577 106.428 93.5121L112.349 94.482C112.544 93.2943 112.678 92.0273 112.771 90.665L106.785 90.2533ZM105.702 96.4297C105.538 96.8857 105.354 97.3119 105.147 97.7178L110.493 100.442C110.818 99.8033 111.101 99.1457 111.347 98.4629L105.702 96.4297ZM105.147 97.7178C104.944 98.1156 104.727 98.504 104.495 98.8825L109.611 102.017C109.925 101.505 110.219 100.98 110.493 100.442L105.147 97.7178ZM102.927 101.041C102.349 101.718 101.718 102.349 101.041 102.927L104.937 107.489C105.854 106.707 106.707 105.854 107.489 104.937L102.927 101.041ZM98.8825 104.495C98.504 104.727 98.1156 104.944 97.7178 105.147L100.442 110.493C100.98 110.219 101.505 109.925 102.017 109.611L98.8825 104.495ZM97.7178 105.147C97.3119 105.354 96.8857 105.538 96.4297 105.702L98.4629 111.347C99.1457 111.101 99.8033 110.818 100.442 110.493L97.7178 105.147ZM93.5121 106.428C92.5577 106.584 91.485 106.701 90.2533 106.785L90.665 112.771C92.0273 112.678 93.2943 112.544 94.482 112.349L93.5121 106.428ZM86.8262 106.937C85.7472 106.964 84.5846 106.98 83.3237 106.989L83.3656 112.989C84.6481 112.98 85.8505 112.964 86.9793 112.935L86.8262 106.937ZM79.7816 107C79.2044 107 78.6111 107 78 107V113C78.6107 113 79.2059 113 79.7852 113L79.7816 107ZM78 107H76.0833V113H78V107ZM72.25 107H68.4167V113H72.25V107ZM64.5833 107H60.75V113H64.5833V107ZM56.9167 107H53.0833V113H56.9167V107ZM49.25 107H45.4167V113H49.25V107ZM41.5833 107H37.75V113H41.5833V107ZM33.9167 107H32V113H33.9167V107Z" fill="url(#paint0_angular_332_10892)" mask="url(#path-1-inside-1_332_10892)"/>
<defs>
<radialGradient id="paint0_angular_332_10892" cx="0" cy="0" r="1" gradientUnits="userSpaceOnUse" gradientTransform="translate(55 55) rotate(-90) scale(29.15)">
<stop stop-color="#F5AD57"/>
<stop offset="1" stop-color="#F5AD57" stop-opacity="0"/>
</radialGradient>
</defs>
</svg>
