<svg width="14" height="18" viewBox="0 0 14 18" fill="none" xmlns="http://www.w3.org/2000/svg">
<path d="M7 0C4.58763 0 2.625 2.0187 2.625 4.5V6.3H1.75C0.784875 6.3 0 7.1073 0 8.1V16.2C0 17.1927 0.784875 18 1.75 18H12.25C13.2151 18 14 17.1927 14 16.2V8.1C14 7.1073 13.2151 6.3 12.25 6.3H11.375V4.5C11.375 2.0187 9.41237 0 7 0ZM4.375 4.5C4.375 3.0114 5.55275 1.8 7 1.8C8.44725 1.8 9.625 3.0114 9.625 4.5V6.3H4.375V4.5ZM12.2518 16.2H7.875V14.1498C8.39563 13.8375 8.75 13.2633 8.75 12.6C8.75 11.6073 7.96513 10.8 7 10.8C6.03487 10.8 5.25 11.6073 5.25 12.6C5.25 13.2624 5.60437 13.8375 6.125 14.1498V16.2H1.75V8.1H12.25L12.2518 16.2Z" fill="#A2ABC5"/>
</svg>
