<svg width="22" height="40" viewBox="0 0 22 40" fill="none" xmlns="http://www.w3.org/2000/svg">
<path d="M4.38664 30.2853L7.00086 27.7476C7.12273 27.6293 7.26742 27.5354 7.42665 27.4714C7.58589 27.4074 7.75655 27.3744 7.92891 27.3744C8.10126 27.3744 8.27193 27.4074 8.43116 27.4714C8.5904 27.5354 8.73508 27.6293 8.85695 27.7476C8.97883 27.8659 9.0755 28.0063 9.14146 28.1609C9.20742 28.3155 9.24136 28.4812 9.24136 28.6485C9.24136 28.8158 9.20742 28.9814 9.14146 29.136C9.0755 29.2906 8.97883 29.431 8.85695 29.5493L8.46482 29.9173H11.8502C13.2336 29.9135 14.58 29.4836 15.6956 28.6897C16.8113 27.8958 17.6387 26.7786 18.0586 25.4992C18.4786 24.2197 18.4695 22.8439 18.0327 21.5697C17.5959 20.2956 16.7538 19.1889 15.6278 18.4089C15.4597 18.3291 15.3112 18.2152 15.1923 18.075C15.0735 17.9347 14.987 17.7713 14.9388 17.5958C14.8906 17.4203 14.8818 17.2368 14.9129 17.0577C14.944 16.8786 15.0144 16.7081 15.1193 16.5577C15.2242 16.4073 15.3611 16.2805 15.5208 16.1859C15.6805 16.0912 15.8593 16.031 16.045 16.0092C16.2308 15.9874 16.4192 16.0046 16.5975 16.0596C16.7758 16.1146 16.9399 16.2061 17.0787 16.328C18.2829 17.1419 19.2677 18.225 19.9502 19.486C20.6327 20.7469 20.9927 22.1487 21 23.5731C21 25.9287 20.036 28.1879 18.3201 29.8536C16.6042 31.5192 14.2769 32.455 11.8502 32.455H8.46482L8.85695 32.823C8.97947 32.9409 9.07671 33.0813 9.14307 33.2359C9.20943 33.3905 9.2436 33.5564 9.2436 33.7239C9.2436 33.8914 9.20943 34.0572 9.14307 34.2118C9.07671 34.3664 8.97947 34.5068 8.85695 34.6247C8.73544 34.7437 8.59087 34.8381 8.43159 34.9025C8.27231 34.9669 8.10146 35.0001 7.92891 35.0001C7.75635 35.0001 7.58551 34.9669 7.42622 34.9025C7.26694 34.8381 7.12237 34.7437 7.00086 34.6247L4.38664 32.087C4.26413 31.9691 4.16689 31.8288 4.10052 31.6741C4.03416 31.5195 4 31.3537 4 31.1862C4 31.0187 4.03416 30.8528 4.10052 30.6982C4.16689 30.5436 4.26413 30.4032 4.38664 30.2853Z" fill="#5562DD"/>
<path d="M2.61481 9.1573C3.46624 8.31618 4.48413 7.65098 5.60725 7.20173C6.73036 6.75249 7.93548 6.52847 9.15009 6.54318H12.5354L12.1432 6.17517C12.0214 6.05685 11.9247 5.91638 11.8588 5.76179C11.7928 5.6072 11.7589 5.44151 11.7589 5.27418C11.7589 5.10686 11.7928 4.94117 11.8588 4.78658C11.9247 4.63198 12.0214 4.49152 12.1432 4.3732C12.2651 4.25488 12.4098 4.16103 12.569 4.09699C12.7282 4.03296 12.8989 4 13.0713 4C13.4193 4 13.7531 4.13424 13.9993 4.3732L16.6134 6.91118C16.7359 7.02915 16.8331 7.1695 16.8995 7.32414C16.9658 7.47878 17 7.64465 17 7.81217C17 7.97969 16.9658 8.14555 16.8995 8.30019C16.8331 8.45483 16.7359 8.59518 16.6134 8.71315L13.9993 11.2511C13.8778 11.3701 13.7332 11.4645 13.5739 11.5289C13.4146 11.5933 13.2438 11.6265 13.0713 11.6265C12.8987 11.6265 12.7279 11.5933 12.5686 11.5289C12.4093 11.4645 12.2648 11.3701 12.1432 11.2511C12.0207 11.1332 11.9235 10.9928 11.8571 10.8382C11.7908 10.6835 11.7566 10.5177 11.7566 10.3502C11.7566 10.1826 11.7908 10.0168 11.8571 9.86213C11.9235 9.70749 12.0207 9.56714 12.1432 9.44917L12.5354 9.08116H9.15009C7.76681 9.085 6.42046 9.51488 5.30485 10.3089C4.18924 11.103 3.3619 12.2202 2.94195 13.4998C2.52199 14.7794 2.53107 16.1554 2.96788 17.4297C3.40469 18.704 4.2467 19.8108 5.3727 20.5909C5.54079 20.6707 5.68928 20.7846 5.80814 20.9248C5.927 21.0651 6.01345 21.2285 6.06165 21.4041C6.10986 21.5796 6.11869 21.7631 6.08755 21.9422C6.05641 22.1213 5.98603 22.2919 5.88116 22.4423C5.77629 22.5927 5.63937 22.7195 5.47967 22.8142C5.31997 22.9088 5.14121 22.9691 4.95546 22.9908C4.76972 23.0126 4.58132 22.9954 4.403 22.9404C4.22469 22.8854 4.06061 22.7939 3.92186 22.6721C2.71772 21.858 1.73288 20.7748 1.05044 19.5137C0.367992 18.2526 0.00795364 16.8507 0.000696182 15.4261C-0.014164 14.265 0.209343 13.1127 0.658171 12.0364C1.107 10.9601 1.77215 9.98133 2.61481 9.1573Z" fill="white"/>
<path d="M11.4656 14.4578C11.6488 14.5453 11.8528 14.5796 12.0543 14.5568C12.2558 14.534 12.4468 14.455 12.6054 14.3287L18.6983 9.24659C18.9456 9.0448 19.1451 8.79065 19.2824 8.50241C19.4197 8.21417 19.4915 7.89899 19.4925 7.5795L19.49 4.84065C19.4948 4.69265 19.4691 4.54521 19.4146 4.40744C19.36 4.26967 19.2778 4.14451 19.173 4.03971C19.0682 3.93491 18.9431 3.8527 18.8053 3.79817C18.6675 3.74364 18.5201 3.71795 18.3721 3.7227L11.8692 3.71694C11.7264 3.71622 11.5849 3.7438 11.4529 3.79807C11.3208 3.85234 11.2009 3.93223 11.1 4.03314C10.9991 4.13404 10.9192 4.25396 10.8649 4.38598C10.8107 4.518 10.7831 4.65951 10.7838 4.80233L10.7915 13.4626C10.7888 13.6772 10.85 13.8879 10.9673 14.0678C11.0847 14.2477 11.2528 14.3888 11.4503 14.4731L11.4656 14.4578Z" fill="white"/>
<path d="M10.0813 25.0891C9.89811 25.0016 9.69411 24.9673 9.49257 24.9901C9.29103 25.0129 9.10007 25.0919 8.94147 25.2181L2.84859 30.3003C2.60125 30.5021 2.40176 30.7562 2.26445 31.0445C2.12714 31.3327 2.05541 31.6479 2.05442 31.9674L2.05685 34.7062C2.05211 34.8542 2.07779 35.0017 2.13232 35.1394C2.18685 35.2772 2.26906 35.4024 2.37386 35.5072C2.47866 35.612 2.60382 35.6942 2.74159 35.7487C2.87936 35.8032 3.02681 35.8289 3.1748 35.8242L9.67767 35.8299C9.82049 35.8306 9.962 35.8031 10.094 35.7488C10.226 35.6945 10.346 35.6146 10.4469 35.5137C10.5478 35.4128 10.6277 35.2929 10.6819 35.1609C10.7362 35.0289 10.7638 34.8874 10.7631 34.7445L10.7554 26.0843C10.7581 25.8697 10.6968 25.659 10.5795 25.4791C10.4622 25.2991 10.2941 25.1581 10.0966 25.0738L10.0813 25.0891Z" fill="#5562DD"/>
</svg>
