<svg width="18" height="14" viewBox="0 0 18 14" fill="none" xmlns="http://www.w3.org/2000/svg">
<path fill-rule="evenodd" clip-rule="evenodd" d="M8.38312 0.418403C8.56581 0.490465 8.72193 0.612443 8.83176 0.768915C8.94158 0.925387 9.00017 1.10933 9.00012 1.29748V12.714C9.00008 12.9021 8.94141 13.086 8.83152 13.2425C8.72164 13.3989 8.56548 13.5208 8.38278 13.5928C8.20008 13.6648 7.99904 13.6836 7.80509 13.6469C7.61114 13.6102 7.43297 13.5196 7.29312 13.3866L3.58612 9.85988H1.00012C0.734906 9.85988 0.480552 9.75964 0.293015 9.58123C0.105479 9.40281 0.00012207 9.16082 0.00012207 8.9085V5.10299C0.00012207 4.85067 0.105479 4.60868 0.293015 4.43026C0.480552 4.25184 0.734906 4.15161 1.00012 4.15161H3.58612L7.29312 0.624852C7.43297 0.491723 7.61117 0.401048 7.8052 0.364299C7.99922 0.327551 8.20035 0.346379 8.38312 0.418403ZM13.6571 0.278551C13.8446 0.100195 14.099 0 14.3641 0C14.6293 0 14.8836 0.100195 15.0711 0.278551C16.001 1.1611 16.7384 2.20971 17.241 3.36416C17.7437 4.51862 18.0016 5.75617 18.0001 7.00574C18.0016 8.25532 17.7437 9.49287 17.241 10.6473C16.7384 11.8018 16.001 12.8504 15.0711 13.7329C14.8825 13.9062 14.6299 14.0021 14.3677 14C14.1055 13.9978 13.8547 13.8977 13.6693 13.7213C13.4839 13.545 13.3787 13.3063 13.3764 13.0569C13.3742 12.8074 13.475 12.5671 13.6571 12.3877C14.4013 11.6818 14.9914 10.8429 15.3935 9.91929C15.7956 8.99565 16.0017 8.00548 16.0001 7.00574C16.0001 4.9032 15.1061 3.00235 13.6571 1.6238C13.4697 1.44539 13.3643 1.20345 13.3643 0.951175C13.3643 0.698903 13.4697 0.45696 13.6571 0.278551ZM10.8281 2.96905C10.921 2.88059 11.0313 2.81042 11.1527 2.76254C11.2741 2.71466 11.4042 2.69002 11.5356 2.69002C11.667 2.69002 11.7972 2.71466 11.9186 2.76254C12.04 2.81042 12.1502 2.88059 12.2431 2.96905C12.801 3.49865 13.2434 4.12789 13.5449 4.82063C13.8465 5.51337 14.0011 6.25596 14.0001 7.00574C14.0011 7.75552 13.8464 8.4981 13.5449 9.19083C13.2433 9.88356 12.801 10.5128 12.2431 11.0424C12.0555 11.221 11.801 11.3212 11.5356 11.3212C11.2703 11.3212 11.0158 11.221 10.8281 11.0424C10.6405 10.8639 10.5351 10.6218 10.5351 10.3693C10.5351 10.1169 10.6405 9.87476 10.8281 9.69624C11.2003 9.34345 11.4954 8.92411 11.6966 8.46236C11.8977 8.00061 12.0009 7.50557 12.0001 7.00574C12.0009 6.50591 11.8978 6.01085 11.6967 5.5491C11.4955 5.08734 11.2003 4.66801 10.8281 4.31525C10.7351 4.22689 10.6614 4.12196 10.6111 4.00647C10.5607 3.89097 10.5348 3.76717 10.5348 3.64215C10.5348 3.51712 10.5607 3.39332 10.6111 3.27783C10.6614 3.16233 10.7351 3.0574 10.8281 2.96905Z" fill="#A2ABC5"/>
</svg>
