<svg width="54" height="54" viewBox="0 0 54 54" fill="none" xmlns="http://www.w3.org/2000/svg">
<path fill-rule="evenodd" clip-rule="evenodd" d="M40.7366 17.2839L28.3921 17.1759L31.8292 14.963L27.2716 6.5754C25.5807 3.46345 23.5861 1.05801 20.4082 0.11033L35.2988 0.00299005C37.4588 -0.0808174 39.8949 1.60957 40.7258 3.50818L43.4238 8.4738L47.3057 6.44742L40.7366 17.2839ZM20.8765 18.3663L9.21989 11.4601L15.4387 1.87519C19.6035 -1.94975 24.6849 3.18535 27.0737 8.26739L20.8765 18.3663ZM48.6678 17.5453L37.0996 24.6063L42.7332 35.0437C48.2419 35.3761 55.1026 33.3297 53.8505 27.7529L48.6678 17.5453ZM28.3864 42.8719L34.4702 31.8971L34.6957 36.0414H44.0856C47.5687 36.0414 50.5954 35.4276 52.9491 33.0483L45.813 46.4024C44.8362 48.3717 42.2078 49.7279 40.1794 49.549H34.6208L34.4702 54.0001L28.3864 42.8719ZM0.299772 17.7946L3.91158 20.6164L0.512262 27.1284C-1.18746 30.1318 1.73246 33.0568 3.59291 34.0751C5.42439 35.0777 8.26683 35.1967 10.9228 35.1602L15.7031 27.3458L19.3144 29.2992L13.047 17.6859L0.299772 17.7946ZM8.58523 47.2074L0.830806 32.881C3.23861 35.5583 6.39006 36.0647 8.79786 35.9195L24.3074 36.0282V49.5957H16.1277C13.0828 49.6679 10.1438 49.1973 8.58523 47.2074Z" fill="#A2ABC5" fill-opacity="0.05"/>
</svg>
