<svg width="18" height="16" viewBox="0 0 18 16" fill="none" xmlns="http://www.w3.org/2000/svg">
<path d="M10.7811 13.25H6.32837C5.19657 13.2469 4.09502 12.8908 3.18248 12.2329C2.26994 11.5751 1.59357 10.6496 1.25086 9.58975C0.90814 8.52992 0.916787 7.39054 1.27555 6.33584C1.63432 5.28115 2.32466 4.36563 3.24708 3.72125M10.7811 13.25L9 11.5M10.7811 13.25L9 15M7.21891 2.75H11.6716C12.8034 2.7531 13.905 3.10923 14.8175 3.76705C15.7301 4.42488 16.4064 5.35041 16.7491 6.41025C17.0919 7.47008 17.0832 8.60946 16.7244 9.66416C16.3657 10.7189 15.6753 11.6344 14.7529 12.2787M7.21891 2.75L9 4.5M7.21891 2.75L9 1" stroke="#A2ABC5" stroke-width="2" stroke-linecap="round" stroke-linejoin="round"/>
</svg>
