<svg width="18" height="18" viewBox="0 0 18 18" fill="none" xmlns="http://www.w3.org/2000/svg">
<path fill-rule="evenodd" clip-rule="evenodd" d="M9 18C13.9706 18 18 13.9706 18 9C18 4.02944 13.9706 0 9 0C4.02944 0 0 4.02944 0 9C0 13.9706 4.02944 18 9 18ZM12.714 5.77654C12.7849 5.80905 12.8493 5.85669 12.9035 5.91671C12.9625 5.97668 13.0097 6.04945 13.042 6.13046C13.0742 6.21146 13.0909 6.29894 13.0909 6.38737C13.0909 6.47581 13.0742 6.56328 13.042 6.64429C13.0097 6.72529 12.9625 6.79807 12.9035 6.85803L8.1529 12.0833C8.09878 12.1434 8.03439 12.191 7.96344 12.2235C7.8925 12.256 7.81641 12.2727 7.73955 12.2727C7.6627 12.2727 7.58661 12.256 7.51566 12.2235C7.44472 12.191 7.38033 12.1434 7.32621 12.0833L5.09065 9.62437C5.03446 9.56466 4.98951 9.49337 4.95837 9.41455C4.92722 9.33574 4.9105 9.25095 4.90915 9.16503C4.90779 9.0791 4.92184 8.99373 4.95049 8.91378C4.97913 8.83383 5.02182 8.76086 5.0761 8.69906C5.13038 8.63725 5.1952 8.5878 5.26685 8.55355C5.3385 8.51929 5.41559 8.5009 5.4937 8.49941C5.57182 8.49793 5.64944 8.51338 5.72213 8.54489C5.79482 8.57639 5.86115 8.62334 5.91734 8.68305L7.73955 10.6938L12.0768 5.91671C12.1309 5.85669 12.1953 5.80905 12.2662 5.77654C12.3372 5.74403 12.4133 5.72729 12.4901 5.72729C12.567 5.72729 12.6431 5.74403 12.714 5.77654Z" fill="#DB4752"/>
</svg>
