<svg width="18" height="18" viewBox="0 0 18 18" fill="none" xmlns="http://www.w3.org/2000/svg">
<path d="M13.2363 0.263701C13.1529 0.179963 13.0537 0.113554 12.9445 0.0682968C12.8353 0.0230401 12.7182 -0.000170504 12.6 9.42906e-07H5.4C5.28179 -0.000170504 5.16472 0.0230401 5.05551 0.0682968C4.94631 0.113554 4.84714 0.179963 4.7637 0.263701L0.263701 4.7637C0.179963 4.84714 0.113554 4.94631 0.0682968 5.05551C0.0230401 5.16472 -0.000170504 5.28179 9.42906e-07 5.4V12.6C9.42906e-07 12.8394 0.0945009 13.068 0.263701 13.2363L4.7637 17.7363C4.84714 17.82 4.94631 17.8864 5.05551 17.9317C5.16472 17.977 5.28179 18.0002 5.4 18H12.6C12.8394 18 13.068 17.9055 13.2363 17.7363L17.7363 13.2363C17.82 13.1529 17.8864 13.0537 17.9317 12.9445C17.977 12.8353 18.0002 12.7182 18 12.6V5.4C18.0002 5.28179 17.977 5.16472 17.9317 5.05551C17.8864 4.94631 17.82 4.84714 17.7363 4.7637L13.2363 0.263701ZM9.9 13.5H8.1V11.7H9.9V13.5ZM9.9 9.9H8.1V4.5H9.9V9.9Z" fill="#A2ABC5"/>
</svg>
