<svg width="20" height="20" viewBox="0 0 20 20" fill="none" xmlns="http://www.w3.org/2000/svg">
<path fill-rule="evenodd" clip-rule="evenodd" d="M10.0129 2.37956e-05C7.46797 -0.00551764 5.01638 0.956979 3.15649 2.69188C1.29659 4.42678 0.167962 6.80388 0 9.34003L5.38696 11.55C5.53413 11.4523 5.69203 11.3718 5.85756 11.31C6.22066 11.1543 6.61429 11.0825 7.00905 11.1L9.45221 7.54003C9.45221 6.78846 9.67536 6.05376 10.0935 5.42886C10.5115 4.80395 11.1058 4.3169 11.801 4.02928C12.4963 3.74167 13.2613 3.66642 13.9994 3.81304C14.7375 3.95966 15.4155 4.32158 15.9476 4.85302C16.4797 5.38446 16.8421 6.06155 16.9889 6.79868C17.1357 7.53581 17.0604 8.29986 16.7724 8.99422C16.4844 9.68858 15.9967 10.2821 15.371 10.6996C14.7453 11.1172 14.0097 11.34 13.2571 11.34H13.177L9.66248 13.84C9.67849 14.5264 9.43868 15.1943 8.98956 15.7141C8.54045 16.2339 7.91403 16.5687 7.23181 16.6534C6.54959 16.7381 5.86018 16.5667 5.2973 16.1725C4.73441 15.7784 4.33816 15.1894 4.18541 14.52L0.41053 12.92C0.95164 14.6901 1.97397 16.2754 3.36372 17.4996C4.75348 18.7238 6.45613 19.5388 8.28216 19.854C10.1082 20.1691 11.986 19.9719 13.7065 19.2845C15.427 18.597 16.9227 17.4462 18.0272 15.9601C19.1317 14.4741 19.8015 12.7111 19.9623 10.8673C20.123 9.02361 19.7683 7.1715 18.9376 5.51717C18.1068 3.86284 16.8328 2.4712 15.2571 1.49713C13.6814 0.523069 11.866 0.0048036 10.0129 2.37956e-05ZM6.21813 15.3201L5.00656 14.8001C5.18771 15.1707 5.47272 15.4809 5.82699 15.6929C6.18125 15.9049 6.58954 16.0097 7.00225 15.9944C7.41497 15.9791 7.81437 15.8445 8.15194 15.6068C8.48952 15.3692 8.75074 15.0388 8.9039 14.6557C9.05706 14.2727 9.09556 13.8535 9.01473 13.449C8.9339 13.0445 8.73721 12.6721 8.44855 12.3771C8.1599 12.0821 7.79169 11.8772 7.38864 11.7872C6.98559 11.6972 6.56505 11.726 6.17807 11.8701L7.45973 12.4001C7.84745 12.5619 8.15493 12.8708 8.31454 13.259C8.47416 13.6472 8.47282 14.0829 8.31083 14.4701C8.14884 14.8573 7.83946 15.1644 7.45076 15.3238C7.06206 15.4832 6.62587 15.4819 6.23815 15.3201H6.21813ZM15.3981 6.08629C15.6728 6.50627 15.8163 6.99834 15.8104 7.49996C15.7999 8.16492 15.5287 8.79926 15.055 9.26671C14.5814 9.73416 13.943 9.99742 13.2771 9.99996C12.7748 9.99992 12.2839 9.85075 11.8666 9.5714C11.4494 9.29206 11.1248 8.89514 10.9339 8.43109C10.7431 7.96704 10.6947 7.45681 10.7949 6.96524C10.8951 6.47367 11.1394 6.02294 11.4967 5.67034C11.854 5.31774 12.3082 5.07917 12.8016 4.98497C13.2949 4.89076 13.8052 4.94516 14.2675 5.14126C14.7299 5.33736 15.1234 5.6663 15.3981 6.08629ZM11.7101 6.44711C11.4999 6.75825 11.3866 7.12461 11.3847 7.49996V7.48996C11.382 7.74115 11.4293 7.99037 11.5237 8.2232C11.6181 8.45603 11.7578 8.66785 11.9348 8.84641C12.1117 9.02496 12.3223 9.16671 12.5544 9.26344C12.7866 9.36017 13.0356 9.40997 13.2871 9.40996C13.663 9.40995 14.0304 9.29877 14.343 9.09043C14.6557 8.8821 14.8995 8.58595 15.0438 8.23935C15.1881 7.89275 15.2263 7.51124 15.1537 7.14295C15.0811 6.77466 14.9009 6.4361 14.6359 6.16999C14.3708 5.90387 14.0328 5.72213 13.6644 5.64769C13.296 5.57326 12.9138 5.60946 12.566 5.75173C12.2182 5.89401 11.9204 6.13598 11.7101 6.44711Z" fill="white"/>
</svg>
