<svg width="28" height="28" viewBox="0 0 28 28" fill="none" xmlns="http://www.w3.org/2000/svg">
<path fill-rule="evenodd" clip-rule="evenodd" d="M21.1225 8.96198L14.7217 8.90596L16.5039 7.75857L14.1407 3.40945C13.264 1.79585 12.2297 0.548597 10.5819 0.0572077L18.3029 0.00155039C19.4229 -0.0419051 20.686 0.83459 21.1169 1.81905L22.5158 4.3938L24.5287 3.34309L21.1225 8.96198ZM10.8249 9.52316L4.78076 5.94218L8.00531 0.972276C10.1648 -1.01101 12.7996 1.65162 14.0382 4.28674L10.8249 9.52316ZM25.235 9.09753L19.2367 12.7588L22.1578 18.1707C25.0141 18.3431 28.5715 17.282 27.9223 14.3903L25.235 9.09753ZM14.7189 22.2298L17.8734 16.5392L17.9903 18.6881H22.8592C24.6652 18.6881 26.2346 18.3698 27.455 17.1361L23.7548 24.0604C23.2484 25.0815 21.8855 25.7847 20.8337 25.6919H17.9515L17.8734 27.9999L14.7189 22.2298ZM0.155436 9.22672L2.02821 10.6899L0.265616 14.0664C-0.615718 15.6237 0.89831 17.1404 1.86298 17.6684C2.81263 18.1883 4.28648 18.25 5.66362 18.2311L8.14232 14.1791L10.0148 15.192L6.76507 9.17035L0.155436 9.22672ZM4.45158 24.4778L0.430786 17.0494C1.67927 18.4376 3.31335 18.7002 4.56183 18.6249L12.6038 18.6813V25.7162H8.36247C6.78363 25.7537 5.25973 25.5096 4.45158 24.4778Z" fill="#A2ABC5" fill-opacity="0.5"/>
</svg>
