<svg width="15" height="16" viewBox="0 0 15 16" fill="none" xmlns="http://www.w3.org/2000/svg">
<path d="M0.937531 0C0.688883 0 0.450418 0.0991593 0.274597 0.275664C0.0987753 0.452169 0 0.691561 0 0.941176C0 1.19079 0.0987753 1.43018 0.274597 1.60669C0.450418 1.78319 0.688883 1.88235 0.937531 1.88235H2.08132L2.36727 3.03247C2.37011 3.04571 2.37323 3.05889 2.37664 3.072L3.64981 8.18259L2.81259 9.02212C1.6313 10.208 2.46758 12.2353 4.13826 12.2353H12.1879C12.4366 12.2353 12.675 12.1361 12.8508 11.9596C13.0267 11.7831 13.1254 11.5437 13.1254 11.2941C13.1254 11.0445 13.0267 10.8051 12.8508 10.6286C12.675 10.4521 12.4366 10.3529 12.1879 10.3529H4.13826L5.07579 9.41177H11.2504C11.4244 9.41167 11.595 9.36293 11.7431 9.27101C11.8911 9.17909 12.0107 9.04761 12.0885 8.89129L14.9011 3.24424C14.9725 3.10078 15.0062 2.94139 14.9991 2.78118C14.9919 2.62098 14.944 2.46527 14.8601 2.32884C14.7761 2.19241 14.6588 2.07978 14.5193 2.00164C14.3798 1.9235 14.2227 1.88244 14.063 1.88235H4.01263L3.722 0.712471C3.67121 0.508944 3.55414 0.32829 3.38937 0.199205C3.2246 0.0701197 3.0216 5.5157e-06 2.81259 0H0.937531ZM13.1254 14.5882C13.1254 14.9627 12.9773 15.3217 12.7135 15.5865C12.4498 15.8513 12.0921 16 11.7191 16C11.3462 16 10.9885 15.8513 10.7247 15.5865C10.461 15.3217 10.3128 14.9627 10.3128 14.5882C10.3128 14.2138 10.461 13.8547 10.7247 13.59C10.9885 13.3252 11.3462 13.1765 11.7191 13.1765C12.0921 13.1765 12.4498 13.3252 12.7135 13.59C12.9773 13.8547 13.1254 14.2138 13.1254 14.5882ZM4.21889 16C4.59186 16 4.94956 15.8513 5.21329 15.5865C5.47703 15.3217 5.62519 14.9627 5.62519 14.5882C5.62519 14.2138 5.47703 13.8547 5.21329 13.59C4.94956 13.3252 4.59186 13.1765 4.21889 13.1765C3.84592 13.1765 3.48822 13.3252 3.22449 13.59C2.96076 13.8547 2.81259 14.2138 2.81259 14.5882C2.81259 14.9627 2.96076 15.3217 3.22449 15.5865C3.48822 15.8513 3.84592 16 4.21889 16Z" fill="white"/>
</svg>
