<svg width="52" height="43" viewBox="0 0 52 43" fill="none" xmlns="http://www.w3.org/2000/svg">
<path fill-rule="evenodd" clip-rule="evenodd" d="M6.44736e-06 5.82962C8.25004e-06 5.43238 0.225334 5.06604 0.576483 4.89238L4.49982 2.95205C4.6414 2.88203 4.80774 2.88303 4.94847 2.95473L7.08194 4.04179C7.44512 4.22684 7.44616 4.74537 7.08372 4.93188L4.09336 6.47072C3.89083 6.59748 3.7663 6.8241 3.76634 7.06584L3.76689 11.2066C3.76693 11.5799 3.9657 11.9182 4.28444 12.0874L5.52906 12.7483C5.54286 12.7556 5.55721 12.7619 5.57199 12.7669C5.77145 12.8349 5.98084 12.6773 5.98082 12.4591L5.98027 8.34402C5.98022 7.95076 6.2005 7.58747 6.54563 7.41162L9.89362 5.70573C10.0362 5.63307 10.205 5.63307 10.3476 5.70573L13.6956 7.41161C14.0407 7.58747 14.261 7.95076 14.2609 8.34402L14.2604 12.4591C14.2604 12.6773 14.4698 12.8349 14.6692 12.7669C14.684 12.7618 14.6983 12.7556 14.7122 12.7483L15.9568 12.0874C16.2755 11.9182 16.4743 11.5799 16.4743 11.2066L16.4749 7.06584C16.4749 6.82409 16.3504 6.59747 16.1478 6.47071L13.1575 4.93188C12.7951 4.74537 12.7961 4.22684 13.1593 4.04179L15.213 2.99537C15.3549 2.92309 15.5227 2.92269 15.6649 2.9943L19.4649 4.90798C19.7934 5.07342 20 5.41645 20 5.79661V7.23079C20 7.61745 19.7864 7.97584 19.4492 8.15485L19.1587 8.3091C18.9953 8.39585 18.8932 8.56572 18.8932 8.75071V14.3249C18.8932 14.6961 18.6876 15.0368 18.3591 15.2097L11.4096 18.8688C10.5348 19.3294 9.48914 19.3294 8.61428 18.8688L1.66484 15.2097C1.33637 15.0368 1.13073 14.6961 1.13073 14.3249V8.75524C1.13073 8.56891 1.02712 8.39804 0.861906 8.31189L0.52319 8.13527C0.201247 7.9674 0 7.62792 0 7.25273L6.44736e-06 5.82962ZM12.3576 2.21796C12.721 2.03095 12.7187 1.51062 12.3537 1.3268L10.5152 0.400972C10.247 0.265905 9.9305 0.266263 9.65615 0.401942L7.84107 1.29961C7.47324 1.48152 7.46907 2.00461 7.83394 2.19238L9.89183 3.25137C10.0354 3.32525 10.2058 3.32525 10.3494 3.25137L12.3576 2.21796Z" fill="#A2ABC5"/>
<path fill-rule="evenodd" clip-rule="evenodd" d="M32 28.8296C32 28.4324 32.2253 28.066 32.5765 27.8924L36.4998 25.9521C36.6414 25.882 36.8077 25.883 36.9485 25.9547L39.0819 27.0418C39.4451 27.2268 39.4462 27.7454 39.0837 27.9319L36.0934 29.4707C35.8908 29.5975 35.7663 29.8241 35.7663 30.0658L35.7669 34.2066C35.7669 34.5799 35.9657 34.9182 36.2844 35.0874L37.5291 35.7483C37.5429 35.7556 37.5572 35.7619 37.572 35.7669C37.7714 35.8349 37.9808 35.6773 37.9808 35.4591L37.9803 31.344C37.9802 30.9508 38.2005 30.5875 38.5456 30.4116L41.8936 28.7057C42.0362 28.6331 42.205 28.6331 42.3476 28.7057L45.6956 30.4116C46.0407 30.5875 46.261 30.9508 46.2609 31.344L46.2604 35.4591C46.2604 35.6773 46.4698 35.8349 46.6692 35.7669C46.684 35.7618 46.6983 35.7556 46.7122 35.7483L47.9568 35.0874C48.2755 34.9182 48.4743 34.5799 48.4743 34.2066L48.4749 30.0658C48.4749 29.8241 48.3504 29.5975 48.1478 29.4707L45.1575 27.9319C44.7951 27.7454 44.7961 27.2268 45.1593 27.0418L47.213 25.9954C47.3549 25.9231 47.5227 25.9227 47.6649 25.9943L51.4649 27.908C51.7934 28.0734 52 28.4165 52 28.7966V30.2308C52 30.6174 51.7864 30.9758 51.4492 31.1549L51.1587 31.3091C50.9953 31.3959 50.8932 31.5657 50.8932 31.7507V37.3249C50.8932 37.6961 50.6876 38.0368 50.3591 38.2097L43.4096 41.8688C42.5348 42.3294 41.4891 42.3294 40.6143 41.8688L33.6648 38.2097C33.3364 38.0368 33.1307 37.6961 33.1307 37.3249V31.7552C33.1307 31.5689 33.0271 31.398 32.8619 31.3119L32.5232 31.1353C32.2012 30.9674 32 30.6279 32 30.2527L32 28.8296ZM44.3576 25.218C44.721 25.031 44.7187 24.5106 44.3537 24.3268L42.5152 23.401C42.247 23.2659 41.9305 23.2663 41.6562 23.4019L39.8411 24.2996C39.4732 24.4815 39.4691 25.0046 39.8339 25.1924L41.8918 26.2514C42.0354 26.3252 42.2058 26.3252 42.3494 26.2514L44.3576 25.218Z" fill="#A2ABC5"/>
<path d="M21.916 24.3479L19.312 17.9639H20.872L22.576 22.6199L24.292 17.9639H25.816L23.224 24.3479H21.916ZM28.9863 24.4199C27.9943 24.4199 27.0983 24.1039 26.2983 23.4719L26.9463 22.4879C27.6343 23.0079 28.3263 23.2679 29.0223 23.2679C29.3343 23.2679 29.5743 23.2079 29.7423 23.0879C29.9183 22.9599 30.0063 22.7839 30.0063 22.5599C30.0063 22.4479 29.9743 22.3519 29.9103 22.2719C29.8543 22.1839 29.7503 22.1039 29.5983 22.0319C29.4463 21.9599 29.3183 21.9079 29.2143 21.8759C29.1103 21.8439 28.9383 21.7919 28.6983 21.7199L28.5903 21.6839C28.3663 21.6199 28.1743 21.5599 28.0143 21.5039C27.8623 21.4399 27.6903 21.3559 27.4983 21.2519C27.3063 21.1479 27.1503 21.0359 27.0303 20.9159C26.9103 20.7879 26.8103 20.6279 26.7303 20.4359C26.6503 20.2439 26.6103 20.0279 26.6103 19.7879C26.6103 19.2039 26.8223 18.7359 27.2463 18.3839C27.6783 18.0319 28.2183 17.8559 28.8663 17.8559C29.6903 17.8559 30.4663 18.0959 31.1943 18.5759L30.6183 19.6079C29.9623 19.2079 29.3663 19.0079 28.8303 19.0079C28.5503 19.0079 28.3303 19.0679 28.1703 19.1879C28.0183 19.3079 27.9423 19.4679 27.9423 19.6679C27.9423 19.8039 28.0103 19.9279 28.1463 20.0399C28.2903 20.1519 28.4303 20.2359 28.5663 20.2919C28.7103 20.3399 28.9383 20.4159 29.2503 20.5199C29.2663 20.5279 29.2863 20.5359 29.3103 20.5439C29.3343 20.5519 29.3543 20.5559 29.3703 20.5559C29.6503 20.6439 29.8863 20.7319 30.0783 20.8199C30.2703 20.8999 30.4703 21.0119 30.6783 21.1559C30.8943 21.2999 31.0583 21.4799 31.1703 21.6959C31.2823 21.9039 31.3383 22.1479 31.3383 22.4279C31.3383 23.0679 31.1183 23.5599 30.6783 23.9039C30.2383 24.2479 29.6743 24.4199 28.9863 24.4199Z" fill="#A2ABC5"/>
</svg>
