<svg width="636" height="618" viewBox="0 0 636 618" fill="none" xmlns="http://www.w3.org/2000/svg">
<rect y="472" width="636" height="16" fill="#2C2E40"/>
<path d="M0 492H636V602C636 607.601 636 610.401 634.91 612.54C633.951 614.422 632.422 615.951 630.54 616.91C628.401 618 625.601 618 620 618H16C10.3995 618 7.59921 618 5.46009 616.91C3.57847 615.951 2.04867 614.422 1.08993 612.54C0 610.401 0 607.601 0 602V492Z" fill="url(#paint0_linear_1386_16295)"/>
<path d="M125.183 425H509.037L636 472H0L125.183 425Z" fill="url(#paint1_linear_1386_16295)"/>
<g filter="url(#filter0_f_1386_16295)">
<ellipse cx="320" cy="445" rx="95" ry="11" fill="black" fill-opacity="0.2"/>
</g>
<path fill-rule="evenodd" clip-rule="evenodd" d="M568 17H68V16H568V17ZM568 71H68V70H568V71ZM68 125H568V124H68V125ZM568 179H68V178H568V179ZM68 233H568V232H68V233ZM568 287H68V286H568V287ZM68 341H568V340H68V341Z" fill="#A2ABC5" fill-opacity="0.05"/>
<path d="M70.2588 2.5498L72.1387 1.94922H72.998V9H71.7822V3.19922L70.5176 3.55078L70.2588 2.5498ZM75.4434 7.08105C75.4434 6.29329 75.8633 5.72363 76.7031 5.37207C76.0228 5.01725 75.6826 4.48991 75.6826 3.79004C75.6826 3.25293 75.9137 2.80371 76.376 2.44238C76.8382 2.08105 77.4176 1.90039 78.1143 1.90039C78.8141 1.90039 79.3936 2.08105 79.8525 2.44238C80.3148 2.80371 80.5459 3.25944 80.5459 3.80957C80.5459 4.49642 80.2057 5.01725 79.5254 5.37207C79.9323 5.56087 80.2432 5.79036 80.458 6.06055C80.6761 6.33073 80.7852 6.66764 80.7852 7.07129C80.7852 7.47819 80.668 7.83789 80.4336 8.15039C80.2025 8.45964 79.8851 8.69564 79.4814 8.8584C79.0811 9.0179 78.6253 9.09766 78.1143 9.09766C77.3395 9.09766 76.6999 8.91211 76.1953 8.54102C75.694 8.16992 75.4434 7.68327 75.4434 7.08105ZM76.6445 7.01758C76.6445 7.3138 76.778 7.56445 77.0449 7.76953C77.3118 7.97135 77.6683 8.07227 78.1143 8.07227C78.5635 8.07227 78.9199 7.97135 79.1836 7.76953C79.4505 7.56445 79.584 7.30729 79.584 6.99805C79.584 6.68229 79.444 6.42676 79.1641 6.23145C78.8874 6.03613 78.5374 5.93848 78.1143 5.93848C77.6911 5.93848 77.3395 6.03776 77.0596 6.23633C76.7829 6.4349 76.6445 6.69531 76.6445 7.01758ZM76.8643 3.92188C76.8643 4.22461 76.9814 4.47363 77.2158 4.66895C77.4535 4.86426 77.7529 4.96191 78.1143 4.96191C78.4756 4.96191 78.7734 4.86426 79.0078 4.66895C79.2454 4.47363 79.3643 4.22135 79.3643 3.91211C79.3643 3.63542 79.2471 3.40267 79.0127 3.21387C78.7816 3.02507 78.4821 2.93066 78.1143 2.93066C77.7432 2.93066 77.4421 3.02669 77.2109 3.21875C76.9798 3.40755 76.8643 3.64193 76.8643 3.92188ZM82.835 5.49902C82.835 4.83171 82.9603 4.22461 83.2109 3.67773C83.4616 3.13086 83.8213 2.69466 84.29 2.36914C84.7588 2.04362 85.2926 1.88086 85.8916 1.88086C86.4873 1.88086 87.0179 2.04199 87.4834 2.36426C87.9521 2.68652 88.3102 3.12109 88.5576 3.66797C88.8083 4.21484 88.9336 4.8252 88.9336 5.49902C88.9336 5.99707 88.8587 6.46745 88.709 6.91016C88.5625 7.35286 88.3574 7.73698 88.0938 8.0625C87.8333 8.38802 87.5094 8.64681 87.1221 8.83887C86.738 9.02767 86.3213 9.12207 85.8721 9.12207C85.2731 9.12207 84.7409 8.96094 84.2754 8.63867C83.8099 8.31641 83.4535 7.88184 83.2061 7.33496C82.9587 6.78483 82.835 6.17285 82.835 5.49902ZM84.1045 5.49902C84.1045 5.96126 84.1761 6.38281 84.3193 6.76367C84.4658 7.14128 84.6758 7.44401 84.9492 7.67188C85.2227 7.89648 85.5368 8.00879 85.8916 8.00879C86.2464 8.00879 86.5589 7.89648 86.8291 7.67188C87.1025 7.44727 87.3092 7.14616 87.4492 6.76855C87.5924 6.39095 87.6641 5.96777 87.6641 5.49902C87.6641 4.79264 87.4964 4.19857 87.1611 3.7168C86.8291 3.23177 86.3994 2.98926 85.8721 2.98926C85.5205 2.98926 85.2096 3.10156 84.9395 3.32617C84.6693 3.54753 84.4626 3.84701 84.3193 4.22461C84.1761 4.60221 84.1045 5.02702 84.1045 5.49902ZM70.2588 56.5498L72.1387 55.9492H72.998V63H71.7822V57.1992L70.5176 57.5508L70.2588 56.5498ZM75.5361 59.6895C75.5361 59.2598 75.5752 58.8545 75.6533 58.4736C75.7347 58.0928 75.8568 57.7445 76.0195 57.4287C76.1855 57.1097 76.3857 56.8363 76.6201 56.6084C76.8545 56.3773 77.1344 56.1982 77.46 56.0713C77.7887 55.9443 78.1468 55.8809 78.5342 55.8809C78.9671 55.8809 79.3496 55.946 79.6816 56.0762C80.0169 56.2064 80.3473 56.4017 80.6729 56.6621L80.0137 57.6094C79.7467 57.401 79.4977 57.248 79.2666 57.1504C79.0387 57.0495 78.7816 56.999 78.4951 56.999C77.9906 56.999 77.5918 57.2041 77.2988 57.6143C77.0059 58.0212 76.8447 58.5566 76.8154 59.2207C77.0368 59.0026 77.276 58.8317 77.5332 58.708C77.7936 58.5811 78.111 58.5176 78.4854 58.5176C78.9443 58.5176 79.3561 58.6022 79.7207 58.7715C80.0885 58.9408 80.3831 59.1963 80.6045 59.5381C80.8258 59.8799 80.9365 60.2803 80.9365 60.7393C80.9365 61.195 80.8226 61.6051 80.5947 61.9697C80.3669 62.3343 80.0544 62.6175 79.6572 62.8193C79.2601 63.0212 78.819 63.1221 78.334 63.1221C77.5299 63.1221 76.8838 62.8779 76.3955 62.3896C76.1058 62.0999 75.8893 61.7484 75.7461 61.335C75.6061 60.9215 75.5361 60.373 75.5361 59.6895ZM76.8545 60.7979C76.8545 61.1592 76.988 61.4603 77.2549 61.7012C77.5218 61.9388 77.8717 62.0576 78.3047 62.0576C78.7311 62.0576 79.0713 61.9372 79.3252 61.6963C79.5791 61.4554 79.7061 61.1462 79.7061 60.7686C79.7061 60.4137 79.5742 60.1224 79.3105 59.8945C79.0501 59.6634 78.7051 59.5479 78.2754 59.5479C77.8522 59.5479 77.5088 59.6683 77.2451 59.9092C76.9847 60.1468 76.8545 60.443 76.8545 60.7979ZM83.0986 59.499C83.0986 58.8317 83.224 58.2246 83.4746 57.6777C83.7253 57.1309 84.085 56.6947 84.5537 56.3691C85.0225 56.0436 85.5563 55.8809 86.1553 55.8809C86.751 55.8809 87.2816 56.042 87.7471 56.3643C88.2158 56.6865 88.5739 57.1211 88.8213 57.668C89.0719 58.2148 89.1973 58.8252 89.1973 59.499C89.1973 59.9971 89.1224 60.4674 88.9727 60.9102C88.8262 61.3529 88.6211 61.737 88.3574 62.0625C88.097 62.388 87.7731 62.6468 87.3857 62.8389C87.0016 63.0277 86.585 63.1221 86.1357 63.1221C85.5368 63.1221 85.0046 62.9609 84.5391 62.6387C84.0736 62.3164 83.7171 61.8818 83.4697 61.335C83.2223 60.7848 83.0986 60.1729 83.0986 59.499ZM84.3682 59.499C84.3682 59.9613 84.4398 60.3828 84.583 60.7637C84.7295 61.1413 84.9395 61.444 85.2129 61.6719C85.4863 61.8965 85.8005 62.0088 86.1553 62.0088C86.5101 62.0088 86.8226 61.8965 87.0928 61.6719C87.3662 61.4473 87.5729 61.1462 87.7129 60.7686C87.8561 60.391 87.9277 59.9678 87.9277 59.499C87.9277 58.7926 87.7601 58.1986 87.4248 57.7168C87.0928 57.2318 86.6631 56.9893 86.1357 56.9893C85.7842 56.9893 85.4733 57.1016 85.2031 57.3262C84.9329 57.5475 84.7262 57.847 84.583 58.2246C84.4398 58.6022 84.3682 59.027 84.3682 59.499ZM70.2588 110.55L72.1387 109.949H72.998V117H71.7822V111.199L70.5176 111.551L70.2588 110.55ZM75.3262 114.549L79.2129 109.949H80.2627V114.422H81.2637V115.428H80.2627V117H79.0859V115.428H75.5557L75.3262 114.549ZM76.7861 114.422H79.0859V111.648L76.7861 114.422ZM83.3428 113.499C83.3428 112.832 83.4681 112.225 83.7188 111.678C83.9694 111.131 84.3291 110.695 84.7979 110.369C85.2666 110.044 85.8005 109.881 86.3994 109.881C86.9951 109.881 87.5257 110.042 87.9912 110.364C88.46 110.687 88.818 111.121 89.0654 111.668C89.3161 112.215 89.4414 112.825 89.4414 113.499C89.4414 113.997 89.3665 114.467 89.2168 114.91C89.0703 115.353 88.8652 115.737 88.6016 116.062C88.3411 116.388 88.0173 116.647 87.6299 116.839C87.2458 117.028 86.8291 117.122 86.3799 117.122C85.7809 117.122 85.2487 116.961 84.7832 116.639C84.3177 116.316 83.9613 115.882 83.7139 115.335C83.4665 114.785 83.3428 114.173 83.3428 113.499ZM84.6123 113.499C84.6123 113.961 84.6839 114.383 84.8271 114.764C84.9736 115.141 85.1836 115.444 85.457 115.672C85.7305 115.896 86.0446 116.009 86.3994 116.009C86.7542 116.009 87.0667 115.896 87.3369 115.672C87.6104 115.447 87.8171 115.146 87.957 114.769C88.1003 114.391 88.1719 113.968 88.1719 113.499C88.1719 112.793 88.0042 112.199 87.6689 111.717C87.3369 111.232 86.9072 110.989 86.3799 110.989C86.0283 110.989 85.7174 111.102 85.4473 111.326C85.1771 111.548 84.9704 111.847 84.8271 112.225C84.6839 112.602 84.6123 113.027 84.6123 113.499ZM70.2588 164.55L72.1387 163.949H72.998V171H71.7822V165.199L70.5176 165.551L70.2588 164.55ZM75.4531 171V170.028L77.8652 167.982C78.3568 167.569 78.6969 167.227 78.8857 166.957C79.0778 166.687 79.1738 166.397 79.1738 166.088C79.1738 165.753 79.068 165.487 78.8564 165.292C78.6449 165.097 78.3747 164.999 78.0459 164.999C77.7399 164.999 77.4648 165.082 77.2207 165.248C76.9766 165.414 76.7113 165.681 76.4248 166.049L75.5557 165.37C75.7933 165.035 76.0228 164.766 76.2441 164.564C76.4688 164.359 76.7373 164.198 77.0498 164.081C77.3656 163.961 77.7269 163.9 78.1338 163.9C78.8206 163.9 79.3773 164.094 79.8037 164.481C80.2301 164.869 80.4434 165.378 80.4434 166.01C80.4434 166.228 80.4173 166.431 80.3652 166.62C80.3164 166.809 80.2497 166.983 80.165 167.143C80.0804 167.299 79.9551 167.468 79.7891 167.65C79.6263 167.829 79.4603 167.995 79.291 168.148C79.125 168.301 78.9036 168.492 78.627 168.72L77.1865 169.921H80.5166V171H75.4531ZM82.6689 167.499C82.6689 166.832 82.7943 166.225 83.0449 165.678C83.2956 165.131 83.6553 164.695 84.124 164.369C84.5928 164.044 85.1266 163.881 85.7256 163.881C86.3213 163.881 86.8519 164.042 87.3174 164.364C87.7861 164.687 88.1442 165.121 88.3916 165.668C88.6423 166.215 88.7676 166.825 88.7676 167.499C88.7676 167.997 88.6927 168.467 88.543 168.91C88.3965 169.353 88.1914 169.737 87.9277 170.062C87.6673 170.388 87.3434 170.647 86.9561 170.839C86.5719 171.028 86.1553 171.122 85.7061 171.122C85.1071 171.122 84.5749 170.961 84.1094 170.639C83.6439 170.316 83.2874 169.882 83.04 169.335C82.7926 168.785 82.6689 168.173 82.6689 167.499ZM83.9385 167.499C83.9385 167.961 84.0101 168.383 84.1533 168.764C84.2998 169.141 84.5098 169.444 84.7832 169.672C85.0566 169.896 85.3708 170.009 85.7256 170.009C86.0804 170.009 86.3929 169.896 86.6631 169.672C86.9365 169.447 87.1432 169.146 87.2832 168.769C87.4264 168.391 87.498 167.968 87.498 167.499C87.498 166.793 87.3304 166.199 86.9951 165.717C86.6631 165.232 86.2334 164.989 85.7061 164.989C85.3545 164.989 85.0436 165.102 84.7734 165.326C84.5033 165.548 84.2965 165.847 84.1533 166.225C84.0101 166.602 83.9385 167.027 83.9385 167.499ZM70.2588 218.55L72.1387 217.949H72.998V225H71.7822V219.199L70.5176 219.551L70.2588 218.55ZM75.5361 221.499C75.5361 220.832 75.6615 220.225 75.9121 219.678C76.1628 219.131 76.5225 218.695 76.9912 218.369C77.46 218.044 77.9938 217.881 78.5928 217.881C79.1885 217.881 79.7191 218.042 80.1846 218.364C80.6533 218.687 81.0114 219.121 81.2588 219.668C81.5094 220.215 81.6348 220.825 81.6348 221.499C81.6348 221.997 81.5599 222.467 81.4102 222.91C81.2637 223.353 81.0586 223.737 80.7949 224.062C80.5345 224.388 80.2106 224.647 79.8232 224.839C79.4391 225.028 79.0225 225.122 78.5732 225.122C77.9743 225.122 77.4421 224.961 76.9766 224.639C76.5111 224.316 76.1546 223.882 75.9072 223.335C75.6598 222.785 75.5361 222.173 75.5361 221.499ZM76.8057 221.499C76.8057 221.961 76.8773 222.383 77.0205 222.764C77.167 223.141 77.377 223.444 77.6504 223.672C77.9238 223.896 78.238 224.009 78.5928 224.009C78.9476 224.009 79.2601 223.896 79.5303 223.672C79.8037 223.447 80.0104 223.146 80.1504 222.769C80.2936 222.391 80.3652 221.968 80.3652 221.499C80.3652 220.793 80.1976 220.199 79.8623 219.717C79.5303 219.232 79.1006 218.989 78.5732 218.989C78.2217 218.989 77.9108 219.102 77.6406 219.326C77.3704 219.548 77.1637 219.847 77.0205 220.225C76.8773 220.602 76.8057 221.027 76.8057 221.499ZM83.7725 221.499C83.7725 220.832 83.8978 220.225 84.1484 219.678C84.3991 219.131 84.7588 218.695 85.2275 218.369C85.6963 218.044 86.2301 217.881 86.8291 217.881C87.4248 217.881 87.9554 218.042 88.4209 218.364C88.8896 218.687 89.2477 219.121 89.4951 219.668C89.7458 220.215 89.8711 220.825 89.8711 221.499C89.8711 221.997 89.7962 222.467 89.6465 222.91C89.5 223.353 89.2949 223.737 89.0312 224.062C88.7708 224.388 88.4469 224.647 88.0596 224.839C87.6755 225.028 87.2588 225.122 86.8096 225.122C86.2106 225.122 85.6784 224.961 85.2129 224.639C84.7474 224.316 84.391 223.882 84.1436 223.335C83.8962 222.785 83.7725 222.173 83.7725 221.499ZM85.042 221.499C85.042 221.961 85.1136 222.383 85.2568 222.764C85.4033 223.141 85.6133 223.444 85.8867 223.672C86.1602 223.896 86.4743 224.009 86.8291 224.009C87.1839 224.009 87.4964 223.896 87.7666 223.672C88.04 223.447 88.2467 223.146 88.3867 222.769C88.5299 222.391 88.6016 221.968 88.6016 221.499C88.6016 220.793 88.4339 220.199 88.0986 219.717C87.7666 219.232 87.3369 218.989 86.8096 218.989C86.458 218.989 86.1471 219.102 85.877 219.326C85.6068 219.548 85.4001 219.847 85.2568 220.225C85.1136 220.602 85.042 221.027 85.042 221.499ZM70.4785 277.081C70.4785 276.293 70.8984 275.724 71.7383 275.372C71.0579 275.017 70.7178 274.49 70.7178 273.79C70.7178 273.253 70.9489 272.804 71.4111 272.442C71.8734 272.081 72.4528 271.9 73.1494 271.9C73.8493 271.9 74.4287 272.081 74.8877 272.442C75.3499 272.804 75.5811 273.259 75.5811 273.81C75.5811 274.496 75.2409 275.017 74.5605 275.372C74.9674 275.561 75.2783 275.79 75.4932 276.061C75.7113 276.331 75.8203 276.668 75.8203 277.071C75.8203 277.478 75.7031 277.838 75.4688 278.15C75.2376 278.46 74.9202 278.696 74.5166 278.858C74.1162 279.018 73.6605 279.098 73.1494 279.098C72.3747 279.098 71.735 278.912 71.2305 278.541C70.7292 278.17 70.4785 277.683 70.4785 277.081ZM71.6797 277.018C71.6797 277.314 71.8132 277.564 72.0801 277.77C72.347 277.971 72.7035 278.072 73.1494 278.072C73.5986 278.072 73.9551 277.971 74.2188 277.77C74.4857 277.564 74.6191 277.307 74.6191 276.998C74.6191 276.682 74.4792 276.427 74.1992 276.231C73.9225 276.036 73.5726 275.938 73.1494 275.938C72.7262 275.938 72.3747 276.038 72.0947 276.236C71.818 276.435 71.6797 276.695 71.6797 277.018ZM71.8994 273.922C71.8994 274.225 72.0166 274.474 72.251 274.669C72.4886 274.864 72.7881 274.962 73.1494 274.962C73.5107 274.962 73.8086 274.864 74.043 274.669C74.2806 274.474 74.3994 274.221 74.3994 273.912C74.3994 273.635 74.2822 273.403 74.0479 273.214C73.8167 273.025 73.5173 272.931 73.1494 272.931C72.7783 272.931 72.4772 273.027 72.2461 273.219C72.015 273.408 71.8994 273.642 71.8994 273.922ZM77.8701 275.499C77.8701 274.832 77.9954 274.225 78.2461 273.678C78.4967 273.131 78.8564 272.695 79.3252 272.369C79.7939 272.044 80.3278 271.881 80.9268 271.881C81.5225 271.881 82.0531 272.042 82.5186 272.364C82.9873 272.687 83.3454 273.121 83.5928 273.668C83.8434 274.215 83.9688 274.825 83.9688 275.499C83.9688 275.997 83.8939 276.467 83.7441 276.91C83.5977 277.353 83.3926 277.737 83.1289 278.062C82.8685 278.388 82.5446 278.647 82.1572 278.839C81.7731 279.028 81.3564 279.122 80.9072 279.122C80.3083 279.122 79.776 278.961 79.3105 278.639C78.8451 278.316 78.4886 277.882 78.2412 277.335C77.9938 276.785 77.8701 276.173 77.8701 275.499ZM79.1396 275.499C79.1396 275.961 79.2113 276.383 79.3545 276.764C79.501 277.141 79.7109 277.444 79.9844 277.672C80.2578 277.896 80.5719 278.009 80.9268 278.009C81.2816 278.009 81.5941 277.896 81.8643 277.672C82.1377 277.447 82.3444 277.146 82.4844 276.769C82.6276 276.391 82.6992 275.968 82.6992 275.499C82.6992 274.793 82.5316 274.199 82.1963 273.717C81.8643 273.232 81.4346 272.989 80.9072 272.989C80.5557 272.989 80.2448 273.102 79.9746 273.326C79.7044 273.548 79.4977 273.847 79.3545 274.225C79.2113 274.602 79.1396 275.027 79.1396 275.499Z" fill="#A2ABC5" fill-opacity="0.1"/>
<defs>
<filter id="filter0_f_1386_16295" x="205" y="414" width="230" height="62" filterUnits="userSpaceOnUse" color-interpolation-filters="sRGB">
<feFlood flood-opacity="0" result="BackgroundImageFix"/>
<feBlend mode="normal" in="SourceGraphic" in2="BackgroundImageFix" result="shape"/>
<feGaussianBlur stdDeviation="10" result="effect1_foregroundBlur_1386_16295"/>
</filter>
<linearGradient id="paint0_linear_1386_16295" x1="318" y1="492" x2="318" y2="618" gradientUnits="userSpaceOnUse">
<stop stop-color="#232636" stop-opacity="0"/>
<stop offset="1" stop-color="#242637"/>
</linearGradient>
<linearGradient id="paint1_linear_1386_16295" x1="318" y1="425" x2="318" y2="472" gradientUnits="userSpaceOnUse">
<stop stop-color="#232434" stop-opacity="0.1"/>
<stop offset="1" stop-color="#2E2F46" stop-opacity="0.5"/>
</linearGradient>
</defs>
</svg>
