<svg width="20" height="16" viewBox="0 0 20 16" fill="none" xmlns="http://www.w3.org/2000/svg">
<path d="M19.3548 2.44167L15.4185 0.0916665C15.3218 0.0323324 15.2118 0.000713838 15.0997 0H12.5499C12.3808 0 12.2187 0.070238 12.0991 0.195262C11.9796 0.320287 11.9124 0.489856 11.9124 0.666667C11.9124 1.1971 11.7109 1.70581 11.3523 2.08088C10.9936 2.45595 10.5072 2.66667 10 2.66667C9.4928 2.66667 9.00637 2.45595 8.64773 2.08088C8.28908 1.70581 8.0876 1.1971 8.0876 0.666667C8.0876 0.489856 8.02044 0.320287 7.90089 0.195262C7.78134 0.070238 7.6192 0 7.45013 0H4.90026C4.78816 0.000713838 4.67822 0.0323324 4.58153 0.0916665L0.645167 2.44167C0.361341 2.60886 0.15 2.88397 0.055034 3.20985C-0.0399319 3.53573 -0.011225 3.88734 0.135193 4.19167L1.60137 7.26667C1.70768 7.48731 1.87053 7.67272 2.07173 7.80221C2.27294 7.9317 2.50459 8.00018 2.74084 8H4.26279V14.6667C4.26279 15.0203 4.39712 15.3594 4.63621 15.6095C4.87531 15.8595 5.1996 16 5.53773 16H14.4623C14.8004 16 15.1247 15.8595 15.3638 15.6095C15.6029 15.3594 15.7372 15.0203 15.7372 14.6667V8H17.2592C17.4954 8.00018 17.7271 7.9317 17.9283 7.80221C18.1295 7.67272 18.2923 7.48731 18.3986 7.26667L19.8648 4.19167C20.0112 3.88734 20.0399 3.53573 19.945 3.20985C19.85 2.88397 19.6387 2.60886 19.3548 2.44167Z" fill="#7F3FD1"/>
</svg>
