<svg width="40" height="40" viewBox="0 0 40 40" fill="none" xmlns="http://www.w3.org/2000/svg">
<path d="M6.7224 0C8.15434 6.12254 4.8 8.30841 0 9.32591C6.06388 11.4574 3.14598 13.5713 1.88553 15.694C7.54555 15.2467 9.38907 17.9571 9.38049 22.2113C12.5102 20.4482 13.8049 16.7466 21.9936 20.3167C19.9871 16.5361 19.2583 13.7117 23.7342 9.92237C20.3301 8.67681 17.1318 7.27337 18.7524 2.80251C13.925 6.12254 10.2722 3.2867 6.7224 0ZM12.4587 5.955C13.8735 5.9557 15.23 6.5311 16.2301 7.5547C17.2302 8.5783 17.7921 9.9663 17.7921 11.4135C17.7914 12.8603 17.2293 14.2476 16.2292 15.2707C15.2292 16.2937 13.873 16.8687 12.4587 16.8694C11.0445 16.8687 9.6883 16.2937 8.68825 15.2707C7.68821 14.2476 7.12608 12.8603 7.1254 11.4135C7.1254 9.9663 7.68722 8.5783 8.68734 7.5547C9.68746 6.5311 11.044 5.9557 12.4587 5.955ZM25.0289 16.8344C26.5123 23.9656 22.8853 25.4305 17.3976 24.834C20.0472 27.6321 21.702 30.7987 18.7781 35.6318C22.6624 34.6494 26.3666 34.4388 28.5445 40C30.4737 35.9563 34.1007 35.4037 38.5509 36.6054C37.0161 34.1757 35.2926 31.746 40 29.3426C36.8274 27.1058 33.6292 24.8954 35.7642 18.422C31.88 22.8955 28.3301 21.9394 25.0289 16.8344ZM29.0932 23.5621C30.5075 23.5628 31.8637 24.1379 32.8637 25.1609C33.8638 26.1839 34.4259 27.5712 34.4266 29.018C34.4259 30.4648 33.8638 31.8521 32.8637 32.8752C31.8637 33.8982 30.5075 34.4732 29.0932 34.4739C27.679 34.4732 26.3228 33.8982 25.3228 32.8752C24.3227 31.8521 23.7606 30.4648 23.7599 29.018C23.7606 27.5712 24.3227 26.1839 25.3228 25.1609C26.3228 24.1379 27.679 23.5628 29.0932 23.5621Z" fill="white"/>
</svg>
