<svg width="36" height="36" viewBox="0 0 36 36" fill="none" xmlns="http://www.w3.org/2000/svg">
<path d="M6.05016 0C7.33891 5.51028 4.32 7.47757 0 8.39332C5.45749 10.3117 2.83138 12.2142 1.69698 14.1246C6.791 13.722 8.45016 16.1614 8.44244 19.9902C11.2592 18.4034 12.4244 15.072 19.7942 18.285C17.9884 14.8825 17.3325 12.3405 21.3608 8.93013C18.2971 7.80913 15.4186 6.54603 16.8772 2.52226C12.5325 5.51028 9.24502 2.95803 6.05016 0ZM11.2129 5.3595C12.4861 5.36013 13.707 5.87799 14.6071 6.79923C15.5072 7.72047 16.0129 8.96967 16.0129 10.2722C16.0122 11.5743 15.5063 12.8229 14.6063 13.7436C13.7063 14.6643 12.4857 15.1819 11.2129 15.1825C9.94001 15.1819 8.71947 14.6643 7.81943 13.7436C6.91938 12.8229 6.41348 11.5743 6.41286 10.2722C6.41286 8.96967 6.9185 7.72047 7.81861 6.79923C8.71872 5.87799 9.93961 5.36013 11.2129 5.3595ZM22.526 15.1509C23.8611 21.5691 20.5968 22.8874 15.6579 22.3506C18.0424 24.8689 19.5318 27.7188 16.9003 32.0686C20.3961 31.1844 23.7299 30.995 25.69 36C27.4264 32.3607 30.6907 31.8633 34.6958 32.9449C33.3145 30.7581 31.7633 28.5714 36 26.4083C33.1447 24.3952 30.2662 22.4059 32.1878 16.5798C28.692 20.6059 25.4971 19.7455 22.526 15.1509ZM26.1839 21.2059C27.4568 21.2065 28.6773 21.7241 29.5774 22.6448C30.4774 23.5655 30.9833 24.8141 30.9839 26.1162C30.9833 27.4183 30.4774 28.6669 29.5774 29.5876C28.6773 30.5084 27.4568 31.0259 26.1839 31.0265C24.9111 31.0259 23.6905 30.5084 22.7905 29.5876C21.8904 28.6669 21.3845 27.4183 21.3839 26.1162C21.3845 24.8141 21.8904 23.5655 22.7905 22.6448C23.6905 21.7241 24.9111 21.2065 26.1839 21.2059Z" fill="#A2ABC5" fill-opacity="0.5"/>
</svg>
