<svg width="20" height="17" viewBox="0 0 20 17" fill="none" xmlns="http://www.w3.org/2000/svg">
<path opacity="0.7" d="M16.9965 12.2403C16.5182 12.2403 16.2438 11.9902 16.2438 11.6225C16.2438 11.4754 16.286 11.3062 16.3845 11.1297C16.5815 10.7767 16.4619 10.3207 16.1243 10.1221L15.4842 9.7323C15.1888 9.54843 14.8089 9.65875 14.6331 9.96766L14.5909 10.0412C14.4221 10.3464 14.2005 10.499 13.9789 10.499C13.7574 10.499 13.5358 10.3464 13.367 10.0412L13.3248 9.96766C13.156 9.65875 12.7691 9.54843 12.4807 9.7323L11.8336 10.1221C11.6085 10.2545 11.4749 10.5046 11.4749 10.762C11.4749 10.887 11.51 11.012 11.5733 11.1297C11.6718 11.3062 11.7211 11.4754 11.7211 11.6225C11.7211 11.9902 11.4397 12.2403 10.9614 12.2403C10.5745 12.2403 10.251 12.5713 10.251 12.9758V13.6672C10.251 14.0717 10.5745 14.4026 10.9614 14.4026C11.4397 14.4026 11.7211 14.6527 11.7211 15.0204C11.7211 15.1675 11.6718 15.3367 11.5733 15.5132C11.3764 15.8663 11.496 16.3223 11.8336 16.5208L12.4807 16.9106C12.7691 17.0945 13.156 16.9842 13.3248 16.6753L13.367 16.6017C13.7046 15.9913 14.2533 15.9913 14.5909 16.6017L14.6331 16.6753C14.8089 16.9842 15.1888 17.0945 15.4842 16.9106L16.1243 16.5208C16.3494 16.3885 16.483 16.1384 16.483 15.881C16.483 15.7559 16.4478 15.6309 16.3845 15.5132C16.286 15.3367 16.2438 15.1675 16.2438 15.0204C16.2438 14.6527 16.5182 14.4026 16.9965 14.4026C17.3904 14.4026 17.7069 14.0717 17.7069 13.6672V12.9758C17.7069 12.5713 17.3904 12.2403 16.9965 12.2403ZM13.9789 14.5865C13.3107 14.5865 12.7691 14.0202 12.7691 13.3215C12.7691 12.6228 13.3107 12.0564 13.9789 12.0564C14.6472 12.0564 15.1888 12.6228 15.1888 13.3215C15.1888 13.6385 15.0773 13.9282 14.8931 14.1502C14.6712 14.4175 14.344 14.5865 13.9789 14.5865Z" fill="#F5AD57"/>
<path d="M0.365052 10.4768L5.52112 14.5384C5.72312 14.6975 6.01306 14.6646 6.16865 14.4647L8.12686 11.9493C8.28232 11.7496 8.24456 11.4586 8.04256 11.2995L7.30344 10.7173L12.2266 4.39321C12.3625 4.21861 12.3533 3.96961 12.2037 3.80081L10.9373 2.37566C10.9185 2.35508 10.8978 2.33596 10.8758 2.31869C10.8539 2.30142 10.8301 2.28592 10.806 2.27216L9.12689 1.37713C8.92776 1.27121 8.6852 1.32161 8.54914 1.49638L3.62596 7.82042L2.88736 7.23861C2.68536 7.07949 2.39542 7.11239 2.23996 7.31208L0.281616 9.82767C0.124818 10.0266 0.162705 10.3174 0.365052 10.4768ZM6.73991 11.4408L7.11301 11.7347L5.71815 13.5264L5.34505 13.2325L6.73991 11.4408ZM8.52576 3.04162L9.94613 5.80562L9.57808 6.27839L8.15798 3.51404L8.52576 3.04162ZM7.53655 4.31229L8.95652 7.07681L8.53852 7.61375L7.11868 4.84907L7.53655 4.31229ZM6.49765 5.64681L7.91789 8.41098L7.40143 9.0744L5.98133 6.31005L6.49765 5.64681ZM2.68881 8.24964L3.42793 8.83187L6.00804 10.8643L4.61318 12.656L1.29361 10.0411L2.68881 8.24964Z" fill="#F5AD57"/>
<path opacity="0.5" fill-rule="evenodd" clip-rule="evenodd" d="M19.736 4.34184C19.822 4.43667 19.8486 4.56888 19.8066 4.6885L18.9923 6.98948C18.95 7.10909 18.8447 7.19804 18.7164 7.22257L16.2458 7.69734C16.1174 7.72223 15.9854 7.67884 15.8994 7.58401L14.2429 5.75801C14.1567 5.66306 14.1298 5.53107 14.1721 5.41147L14.9863 3.11082C15.0285 2.99133 15.1337 2.90238 15.2621 2.87773L17.7329 2.40262C17.8617 2.37764 17.9934 2.42101 18.0796 2.51597L19.736 4.34184ZM16.0439 4.10418C16.6098 3.62601 17.4718 3.6802 17.9658 4.22478C18.4599 4.76947 18.4018 5.60135 17.8359 6.07952C17.2699 6.5578 16.4082 6.50315 15.9141 5.95846C15.4201 5.41388 15.4779 4.58246 16.0439 4.10418ZM16.5258 4.63488C16.2643 4.85588 16.2372 5.24058 16.4657 5.49238C16.6941 5.74418 17.0928 5.76913 17.3543 5.54813C17.6159 5.32714 17.6429 4.94243 17.4145 4.69063C17.186 4.43883 16.7876 4.41366 16.5258 4.63488Z" fill="#F5AD57"/>
</svg>
