<svg width="17" height="14" viewBox="0 0 17 14" fill="none" xmlns="http://www.w3.org/2000/svg">
<path fill-rule="evenodd" clip-rule="evenodd" d="M8.37707 0.0761159C8.55962 0.15186 8.71563 0.280072 8.82538 0.444541C8.93512 0.60901 8.99367 0.80235 8.99362 1.00012V13.0001C8.99358 13.1979 8.93495 13.3912 8.82514 13.5556C8.71534 13.72 8.55929 13.8481 8.37672 13.9238C8.19415 13.9995 7.99327 14.0193 7.79945 13.9807C7.60564 13.9421 7.4276 13.8469 7.28785 13.7071L3.58353 10.0001H0.9994C0.734375 10.0001 0.480205 9.89476 0.292804 9.70722C0.105403 9.51969 0.00012207 9.26533 0.00012207 9.00012V5.00012C0.00012207 4.7349 0.105403 4.48055 0.292804 4.29301C0.480205 4.10547 0.734375 4.00012 0.9994 4.00012H3.58353L7.28785 0.293116C7.4276 0.153183 7.60568 0.0578741 7.79956 0.0192471C7.99345 -0.0193799 8.19442 0.000411086 8.37707 0.0761159ZM11.285 4.29312C11.4724 4.10565 11.7265 4.00033 11.9915 4.00033C12.2564 4.00033 12.5106 4.10565 12.6979 4.29312L13.99 5.58612L15.2821 4.29312C15.3743 4.19761 15.4845 4.12142 15.6064 4.06901C15.7284 4.01661 15.8595 3.98902 15.9922 3.98787C16.1248 3.98671 16.2564 4.01201 16.3792 4.06229C16.502 4.11258 16.6136 4.18683 16.7074 4.28072C16.8013 4.37461 16.8755 4.48627 16.9257 4.60916C16.976 4.73206 17.0012 4.86374 17.0001 4.99652C16.9989 5.1293 16.9714 5.26052 16.919 5.38252C16.8666 5.50452 16.7905 5.61487 16.6951 5.70712L15.403 7.00012L16.6951 8.29312C16.8771 8.48172 16.9778 8.73432 16.9755 8.99652C16.9732 9.25871 16.8682 9.50953 16.6829 9.69493C16.4976 9.88034 16.247 9.98551 15.985 9.98779C15.723 9.99007 15.4705 9.88927 15.2821 9.70712L13.99 8.41412L12.6979 9.70712C12.5095 9.88927 12.2571 9.99007 11.9951 9.98779C11.733 9.98551 11.4824 9.88034 11.2971 9.69493C11.1119 9.50953 11.0068 9.25871 11.0045 8.99652C11.0022 8.73432 11.1029 8.48172 11.285 8.29312L12.577 7.00012L11.285 5.70712C11.0976 5.51959 10.9924 5.26528 10.9924 5.00012C10.9924 4.73495 11.0976 4.48064 11.285 4.29312Z" fill="#A2ABC5" fill-opacity="0.2"/>
</svg>
