<svg width="13" height="12" viewBox="0 0 13 12" fill="none" xmlns="http://www.w3.org/2000/svg">
<path fill-rule="evenodd" clip-rule="evenodd" d="M13 11.126L11.6655 9.87555L10.7703 9.03678L9.92267 8.24251L9.2353 7.59843L7.91597 6.36221V1.05511C7.91591 0.943308 7.88348 0.833611 7.82215 0.737706C7.76081 0.641802 7.67286 0.563282 7.56767 0.510509C7.46247 0.457736 7.34397 0.432687 7.22478 0.43803C7.1056 0.443372 6.99019 0.478906 6.89085 0.540847L3.7779 2.4848L1.12605 0L0.193282 0.874008L12.0672 12L13 11.126ZM6.59664 5.12599V2.20975L4.72913 3.37612L6.59664 5.12599Z" fill="#A2ABC5" fill-opacity="0.2"/>
<path fill-rule="evenodd" clip-rule="evenodd" d="M3.09844 9.09055H1.31933C0.591719 9.09055 0 8.53611 0 7.85433V4.14567C0.000852466 3.91749 0.0692555 3.69401 0.197598 3.50009C0.32594 3.30617 0.509188 3.14942 0.72695 3.04729L1.89917 4.14567H1.31933V7.85433H3.29832C3.30986 7.85433 3.32042 7.85729 3.33107 7.86027C3.3399 7.86274 3.34879 7.86523 3.35835 7.86608C3.44669 7.87362 3.53244 7.89803 3.61034 7.93778C3.61757 7.94116 3.62538 7.94345 3.63324 7.94575C3.64403 7.94891 3.65489 7.95209 3.66443 7.95817L6.59664 9.79025V8.54723L7.91597 9.78345V10.9449C7.91602 11.0568 7.88364 11.1666 7.8223 11.2626C7.76096 11.3586 7.67295 11.4372 7.56767 11.4901C7.46226 11.5426 7.34364 11.5675 7.22439 11.562C7.10513 11.5566 6.98966 11.521 6.89019 11.4592L3.09844 9.09055Z" fill="#A2ABC5" fill-opacity="0.2"/>
</svg>
