<svg width="26" height="26" viewBox="0 0 26 26" fill="none" xmlns="http://www.w3.org/2000/svg">
<path fill-rule="evenodd" clip-rule="evenodd" d="M1.00472e-05 7.74165C1.18381e-05 7.3444 0.225337 6.97807 0.576486 6.8044L5.9185 4.16246C6.06008 4.09244 6.22642 4.09344 6.36715 4.16514L9.46848 5.74535C9.83166 5.9304 9.83271 6.44893 9.47027 6.63544L5.32079 8.77076C5.0575 8.93555 4.89562 9.23015 4.89566 9.54442L4.8964 15.1092C4.89645 15.4825 5.09521 15.8208 5.41395 15.99L7.1872 16.9316C7.20514 16.9412 7.2238 16.9492 7.24301 16.9558C7.5023 17.0442 7.77452 16.8393 7.77448 16.5556L7.77375 11.0128C7.77369 10.6195 7.99397 10.2562 8.33911 10.0804L12.9308 7.74079C13.0734 7.66813 13.2421 7.66813 13.3848 7.74079L17.9764 10.0804C18.3215 10.2562 18.5418 10.6195 18.5418 11.0128L18.541 16.5556C18.541 16.8393 18.8132 17.0442 19.0725 16.9558C19.0917 16.9492 19.1104 16.9412 19.1283 16.9316L20.9016 15.99C21.2203 15.8208 21.4191 15.4825 21.4191 15.1092L21.4199 9.54442C21.4199 9.23015 21.258 8.93555 20.9947 8.77076L16.8453 6.63544C16.4828 6.44893 16.4839 5.9304 16.847 5.74535L19.8443 4.21814C19.9862 4.14586 20.154 4.14546 20.2962 4.21708L25.4649 6.81999C25.7934 6.98544 26 7.32847 26 7.70863V9.9483C26 10.335 25.7864 10.6934 25.4492 10.8724L24.8267 11.2029C24.6633 11.2897 24.5612 11.4595 24.5612 11.6445V19.1622C24.5612 19.5334 24.3555 19.8741 24.027 20.0471L14.4132 25.109C13.5384 25.5696 12.4927 25.5696 11.6179 25.109L2.00406 20.0471C1.67559 19.8741 1.46995 19.5334 1.46995 19.1622V11.6496C1.46995 11.4633 1.36634 11.2924 1.20113 11.2063L0.52319 10.8528C0.201248 10.6849 0 10.3454 0 9.97025L1.00472e-05 7.74165ZM16.3266 3.10718C16.69 2.92018 16.6877 2.39985 16.3227 2.21602L13.5424 0.815889C13.2742 0.680822 12.9577 0.68118 12.6833 0.816859L9.92814 2.17946C9.56031 2.36137 9.55614 2.88446 9.92101 3.07223L12.929 4.62013C13.0725 4.69401 13.243 4.69401 13.3865 4.62013L16.3266 3.10718Z" fill="#A2ABC5"/>
</svg>
