<svg width="25" height="26" viewBox="0 0 25 26" fill="none" xmlns="http://www.w3.org/2000/svg">
<path d="M0.193273 11.4258C1.04417 10.2836 2.17959 9.38436 3.48634 8.81776C2.77139 8.16368 2.27078 7.3088 2.05018 6.36523C1.82957 5.42167 1.89926 4.43346 2.2501 3.53019C2.60095 2.62692 3.21658 1.85076 4.01625 1.30349C4.81593 0.756215 5.76232 0.463379 6.73134 0.463379C7.70035 0.463379 8.64674 0.756215 9.44642 1.30349C10.2461 1.85076 10.8617 2.62692 11.2126 3.53019C11.5634 4.43346 11.6331 5.42167 11.4125 6.36523C11.1919 7.3088 10.6913 8.16368 9.97633 8.81776C10.918 9.22725 11.7742 9.81027 12.5002 10.5364C13.2262 9.81027 14.0824 9.22725 15.0241 8.81776C14.3091 8.16368 13.8085 7.3088 13.5879 6.36523C13.3673 5.42167 13.437 4.43346 13.7879 3.53019C14.1387 2.62692 14.7543 1.85076 15.554 1.30349C16.3537 0.756215 17.3001 0.463379 18.2691 0.463379C19.2381 0.463379 20.1845 0.756215 20.9842 1.30349C21.7839 1.85076 22.3995 2.62692 22.7503 3.53019C23.1012 4.43346 23.1709 5.42167 22.9502 6.36523C22.7296 7.3088 22.229 8.16368 21.5141 8.81776C22.8208 9.38436 23.9563 10.2836 24.8072 11.4258C24.8829 11.5268 24.938 11.6417 24.9694 11.764C25.0007 11.8864 25.0076 12.0136 24.9898 12.1386C24.9719 12.2636 24.9296 12.3839 24.8653 12.4925C24.801 12.6012 24.7159 12.6961 24.6149 12.7718C24.4098 12.9218 24.1542 12.9856 23.9027 12.9497C23.6512 12.9137 23.4237 12.7809 23.2688 12.5796C22.6867 11.8034 21.9318 11.1734 21.064 10.7395C20.1962 10.3056 19.2393 10.0797 18.2691 10.0797C17.2989 10.0797 16.342 10.3056 15.4742 10.7395C14.6064 11.1734 13.8515 11.8034 13.2694 12.5796L13.1973 12.6517H13.1853L13.1252 12.7118L13.0891 12.7358C13.0891 12.739 13.0879 12.742 13.0856 12.7443C13.0833 12.7465 13.0803 12.7478 13.0771 12.7478L13.041 12.7718L13.005 12.7959L12.9449 12.8319H12.9209L12.7165 12.9041H12.3199L12.2238 12.88H12.1877L12.0796 12.8319L12.0435 12.8079C12.0048 12.7881 11.9685 12.7639 11.9353 12.7358H11.9233L11.8873 12.6997H11.8632C11.8392 12.6757 11.8152 12.6637 11.8031 12.6396H11.7911L11.719 12.5555C11.1357 11.7823 10.3807 11.1553 9.51356 10.7239C8.64641 10.2925 7.69086 10.0685 6.72233 10.0697C5.75379 10.0708 4.79879 10.2971 3.93268 10.7306C3.06657 11.1641 2.31307 11.7929 1.73164 12.5675C1.64335 12.6892 1.52778 12.7884 1.39419 12.8573C1.26061 12.9261 1.11274 12.9628 0.962457 12.9641C0.75399 12.9669 0.550714 12.8991 0.385569 12.7718C0.284558 12.6961 0.199458 12.6012 0.135128 12.4925C0.0707977 12.3839 0.0284967 12.2636 0.0106404 12.1386C-0.00721595 12.0136 -0.000278071 11.8864 0.0310581 11.764C0.0623942 11.6417 0.117515 11.5268 0.193273 11.4258ZM21.5141 21.317C22.229 20.6629 22.7296 19.808 22.9502 18.8645C23.1709 17.9209 23.1012 16.9327 22.7503 16.0294C22.3995 15.1262 21.7839 14.35 20.9842 13.8027C20.1845 13.2555 19.2381 12.9626 18.2691 12.9626C17.3001 12.9626 16.3537 13.2555 15.554 13.8027C14.7543 14.35 14.1387 15.1262 13.7879 16.0294C13.437 16.9327 13.3673 17.9209 13.5879 18.8645C13.8085 19.808 14.3091 20.6629 15.0241 21.317C14.0824 21.7265 13.2262 22.3095 12.5002 23.0356C11.7742 22.3095 10.918 21.7265 9.97633 21.317C10.6913 20.6629 11.1919 19.808 11.4125 18.8645C11.6331 17.9209 11.5634 16.9327 11.2126 16.0294C10.8617 15.1262 10.2461 14.35 9.44642 13.8027C8.64674 13.2555 7.70035 12.9626 6.73134 12.9626C5.76232 12.9626 4.81593 13.2555 4.01625 13.8027C3.21658 14.35 2.60095 15.1262 2.2501 16.0294C1.89926 16.9327 1.82957 17.9209 2.05018 18.8645C2.27078 19.808 2.77139 20.6629 3.48634 21.317C2.17959 21.8836 1.04417 22.7828 0.193273 23.925C0.086138 24.0679 0.0208976 24.2377 0.00486206 24.4156C-0.0111735 24.5934 0.0226293 24.7722 0.102483 24.9319C0.182337 25.0916 0.305086 25.2259 0.456977 25.3198C0.608868 25.4137 0.783898 25.4634 0.962457 25.4634H24.038C24.2165 25.4634 24.3916 25.4137 24.5434 25.3198C24.6953 25.2259 24.8181 25.0916 24.8979 24.9319C24.9778 24.7722 25.0116 24.5934 24.9956 24.4156C24.9795 24.2377 24.9143 24.0679 24.8072 23.925C23.9563 22.7828 22.8208 21.8836 21.5141 21.317Z" fill="#8088A8"/>
</svg>
