<svg width="26" height="26" viewBox="0 0 26 26" fill="none" xmlns="http://www.w3.org/2000/svg">
<path d="M0.693273 11.1094C1.54417 9.96717 2.67959 9.06795 3.98634 8.50136C3.27139 7.84727 2.77078 6.99239 2.55018 6.04883C2.32957 5.10526 2.39926 4.11705 2.7501 3.21378C3.10095 2.31051 3.71658 1.53435 4.51625 0.98708C5.31593 0.439808 6.26232 0.146973 7.23134 0.146973C8.20035 0.146973 9.14674 0.439808 9.94642 0.98708C10.7461 1.53435 11.3617 2.31051 11.7126 3.21378C12.0634 4.11705 12.1331 5.10526 11.9125 6.04883C11.6919 6.99239 11.1913 7.84727 10.4763 8.50136C11.418 8.91084 12.2742 9.49387 13.0002 10.22C13.7262 9.49387 14.5824 8.91084 15.5241 8.50136C14.8091 7.84727 14.3085 6.99239 14.0879 6.04883C13.8673 5.10526 13.937 4.11705 14.2879 3.21378C14.6387 2.31051 15.2543 1.53435 16.054 0.98708C16.8537 0.439808 17.8001 0.146973 18.7691 0.146973C19.7381 0.146973 20.6845 0.439808 21.4842 0.98708C22.2839 1.53435 22.8995 2.31051 23.2503 3.21378C23.6012 4.11705 23.6709 5.10526 23.4502 6.04883C23.2296 6.99239 22.729 7.84727 22.0141 8.50136C23.3208 9.06795 24.4563 9.96717 25.3072 11.1094C25.3829 11.2104 25.438 11.3253 25.4694 11.4476C25.5007 11.5699 25.5076 11.6972 25.4898 11.8222C25.4719 11.9472 25.4296 12.0675 25.3653 12.1761C25.301 12.2848 25.2159 12.3797 25.1149 12.4554C24.9098 12.6054 24.6542 12.6692 24.4027 12.6332C24.1512 12.5973 23.9237 12.4645 23.7688 12.2631C23.1867 11.487 22.4318 10.857 21.564 10.4231C20.6962 9.98919 19.7393 9.7633 18.7691 9.7633C17.7989 9.7633 16.842 9.98919 15.9742 10.4231C15.1064 10.857 14.3515 11.487 13.7694 12.2631L13.6973 12.3353H13.6853L13.6252 12.3953L13.5891 12.4194C13.5891 12.4226 13.5879 12.4256 13.5856 12.4279C13.5833 12.4301 13.5803 12.4314 13.5771 12.4314L13.541 12.4554L13.505 12.4795L13.4449 12.5155H13.4209L13.2165 12.5876H12.8199L12.7238 12.5636H12.6877L12.5796 12.5155L12.5435 12.4915C12.5048 12.4717 12.4685 12.4475 12.4353 12.4194H12.4233L12.3873 12.3833H12.3632C12.3392 12.3593 12.3152 12.3473 12.3031 12.3232H12.2911L12.219 12.2391C11.6357 11.4659 10.8807 10.8389 10.0136 10.4075C9.14641 9.97606 8.19086 9.7521 7.22233 9.75327C6.25379 9.75443 5.29879 9.98069 4.43268 10.4142C3.56657 10.8477 2.81307 11.4765 2.23164 12.2511C2.14335 12.3728 2.02778 12.472 1.89419 12.5409C1.76061 12.6097 1.61274 12.6463 1.46246 12.6477C1.25399 12.6504 1.05071 12.5827 0.885569 12.4554C0.784558 12.3797 0.699458 12.2848 0.635128 12.1761C0.570798 12.0675 0.528497 11.9472 0.51064 11.8222C0.492784 11.6972 0.499722 11.5699 0.531058 11.4476C0.562394 11.3253 0.617515 11.2104 0.693273 11.1094ZM22.0141 21.0006C22.729 20.3465 23.2296 19.4916 23.4502 18.5481C23.6709 17.6045 23.6012 16.6163 23.2503 15.713C22.8995 14.8097 22.2839 14.0336 21.4842 13.4863C20.6845 12.939 19.7381 12.6462 18.7691 12.6462C17.8001 12.6462 16.8537 12.939 16.054 13.4863C15.2543 14.0336 14.6387 14.8097 14.2879 15.713C13.937 16.6163 13.8673 17.6045 14.0879 18.5481C14.3085 19.4916 14.8091 20.3465 15.5241 21.0006C14.5824 21.4101 13.7262 21.9931 13.0002 22.7192C12.2742 21.9931 11.418 21.4101 10.4763 21.0006C11.1913 20.3465 11.6919 19.4916 11.9125 18.5481C12.1331 17.6045 12.0634 16.6163 11.7126 15.713C11.3617 14.8097 10.7461 14.0336 9.94642 13.4863C9.14674 12.939 8.20035 12.6462 7.23134 12.6462C6.26232 12.6462 5.31593 12.939 4.51625 13.4863C3.71658 14.0336 3.10095 14.8097 2.7501 15.713C2.39926 16.6163 2.32957 17.6045 2.55018 18.5481C2.77078 19.4916 3.27139 20.3465 3.98634 21.0006C2.67959 21.5672 1.54417 22.4664 0.693273 23.6086C0.586138 23.7515 0.520898 23.9213 0.504862 24.0991C0.488827 24.277 0.522629 24.4558 0.602483 24.6155C0.682337 24.7752 0.805086 24.9095 0.956977 25.0034C1.10887 25.0972 1.2839 25.147 1.46246 25.147H24.538C24.7165 25.147 24.8916 25.0972 25.0434 25.0034C25.1953 24.9095 25.3181 24.7752 25.3979 24.6155C25.4778 24.4558 25.5116 24.277 25.4956 24.0991C25.4795 23.9213 25.4143 23.7515 25.3072 23.6086C24.4563 22.4664 23.3208 21.5672 22.0141 21.0006Z" fill="#5562DD"/>
</svg>
