<svg width="16" height="16" viewBox="0 0 16 16" fill="none" xmlns="http://www.w3.org/2000/svg">
<path fill-rule="evenodd" clip-rule="evenodd" d="M12.0701 5.12116L8.41248 5.08915L9.43089 4.43349L8.08048 1.94827C7.57948 1.02621 6.98848 0.313486 6.04688 0.0326903L10.4589 0.000885942C11.0989 -0.0239459 11.8207 0.476911 12.0669 1.03946L12.8663 2.51076L14.0165 1.91035L12.0701 5.12116ZM6.18558 5.44184L2.73177 3.39556L4.57438 0.555597C5.80838 -0.577717 7.31399 0.943794 8.02179 2.44958L6.18558 5.44184ZM14.4201 5.1986L10.9925 7.29076L12.6617 10.3833C14.2939 10.4818 16.3267 9.87547 15.9557 8.22307L14.4201 5.1986ZM8.41074 12.7028L10.2133 9.45099L10.2801 10.6789H13.0624C14.0944 10.6789 14.9912 10.4971 15.6886 9.79207L13.5742 13.7489C13.2848 14.3323 12.5059 14.7342 11.9049 14.6812H10.2579L10.2133 16L8.41074 12.7028ZM0.0888212 5.27248L1.15899 6.10857L0.151781 8.03803C-0.35184 8.92794 0.513323 9.79461 1.06456 10.0963C1.60723 10.3934 2.44943 10.4287 3.23637 10.4178L4.65278 8.10246L5.72278 8.68125L3.86578 5.24027L0.0888212 5.27248ZM2.5437 13.9874L0.246094 9.74251C0.959516 10.5358 1.89328 10.6858 2.6067 10.6428L7.20212 10.675V14.695H4.77851C3.87631 14.7164 3.0055 14.577 2.5437 13.9874Z" fill="white"/>
</svg>
