<svg width="12" height="13" viewBox="0 0 12 13" fill="none" xmlns="http://www.w3.org/2000/svg">
<path d="M6.00024 12L6.55437 11.7678C7.71608 11.2841 8.71924 10.501 9.45515 9.5035C10.1911 8.50599 10.6317 7.33206 10.7292 6.10889L11 2.73556C11.0042 2.59596 10.959 2.45918 10.8719 2.34799C10.7848 2.23679 10.6611 2.1579 10.5214 2.12444L6.00024 1L1.47908 2.1C1.33936 2.13346 1.21567 2.21235 1.1286 2.32354C1.04152 2.43473 0.996321 2.57151 1.00051 2.71111L1.27128 6.08444C1.36883 7.30761 1.80943 8.48155 2.54534 9.47906C3.28125 10.4766 4.28441 11.2596 5.44612 11.7433L6.00024 12Z" stroke="#A2ABC5" stroke-opacity="0.5" stroke-width="2" stroke-linecap="round" stroke-linejoin="round"/>
</svg>
