<svg width="67" height="5" viewBox="0 0 67 5" fill="none" xmlns="http://www.w3.org/2000/svg">
<rect y="5" width="5" height="1" rx="0.5" transform="rotate(-90 0 5)" fill="#A2ABC5" fill-opacity="0.1"/>
<rect x="6" y="5" width="3" height="1" rx="0.5" transform="rotate(-90 6 5)" fill="#A2ABC5" fill-opacity="0.1"/>
<rect x="30" y="5" width="3" height="1" rx="0.5" transform="rotate(-90 30 5)" fill="#A2ABC5" fill-opacity="0.1"/>
<rect x="54" y="5" width="3" height="1" rx="0.5" transform="rotate(-90 54 5)" fill="#A2ABC5" fill-opacity="0.1"/>
<rect x="12" y="5" width="3" height="1" rx="0.5" transform="rotate(-90 12 5)" fill="#A2ABC5" fill-opacity="0.1"/>
<rect x="36" y="5" width="3" height="1" rx="0.5" transform="rotate(-90 36 5)" fill="#A2ABC5" fill-opacity="0.1"/>
<rect x="60" y="5" width="3" height="1" rx="0.5" transform="rotate(-90 60 5)" fill="#A2ABC5" fill-opacity="0.1"/>
<rect x="18" y="5" width="3" height="1" rx="0.5" transform="rotate(-90 18 5)" fill="#A2ABC5" fill-opacity="0.1"/>
<rect x="42" y="5" width="3" height="1" rx="0.5" transform="rotate(-90 42 5)" fill="#A2ABC5" fill-opacity="0.1"/>
<rect x="66" y="5" width="3" height="1" rx="0.5" transform="rotate(-90 66 5)" fill="#A2ABC5" fill-opacity="0.1"/>
<rect x="24" y="5" width="5" height="1" rx="0.5" transform="rotate(-90 24 5)" fill="#A2ABC5" fill-opacity="0.1"/>
<rect x="48" y="5" width="5" height="1" rx="0.5" transform="rotate(-90 48 5)" fill="#A2ABC5" fill-opacity="0.1"/>
</svg>
