<svg width="38" height="38" viewBox="0 0 38 38" fill="none" xmlns="http://www.w3.org/2000/svg">
<circle cx="19" cy="19" r="19" fill="url(#paint0_linear_251_6348)"/>
<path d="M25.963 17.0267C25.919 16.8971 25.838 16.7832 25.73 16.6991C25.6221 16.6151 25.4918 16.5644 25.3554 16.5535L21.3647 16.2364L19.6378 12.4137C19.5828 12.2906 19.4933 12.186 19.3802 12.1126C19.2671 12.0392 19.1351 12.0001 19.0003 12C18.8654 11.9999 18.7335 12.0389 18.6203 12.1122C18.5071 12.1854 18.4175 12.2899 18.3624 12.413L16.6354 16.2364L12.6447 16.5535C12.5106 16.5641 12.3825 16.6132 12.2755 16.6947C12.1686 16.7763 12.0874 16.8869 12.0417 17.0134C11.996 17.1399 11.9877 17.2769 12.0178 17.408C12.0479 17.5391 12.1151 17.6587 12.2114 17.7526L15.1605 20.6275L14.1175 25.144C14.0859 25.2807 14.096 25.4237 14.1467 25.5546C14.1973 25.6855 14.2861 25.7981 14.4016 25.8779C14.5171 25.9576 14.6538 26.0008 14.7941 26.0019C14.9345 26.003 15.0719 25.9619 15.1885 25.8839L19.0001 23.3428L22.8116 25.8839C22.9308 25.963 23.0714 26.0038 23.2145 26.0006C23.3576 25.9975 23.4963 25.9506 23.612 25.8663C23.7276 25.782 23.8147 25.6643 23.8614 25.529C23.9082 25.3937 23.9124 25.2474 23.8735 25.1097L22.5932 20.6296L25.7684 17.7722C25.9763 17.5846 26.0526 17.292 25.963 17.0267Z" fill="#BCDD86"/>
<defs>
<linearGradient id="paint0_linear_251_6348" x1="19" y1="0" x2="19" y2="38" gradientUnits="userSpaceOnUse">
<stop stop-color="#92C145" stop-opacity="0.5"/>
<stop offset="1" stop-color="#92C145" stop-opacity="0.7"/>
</linearGradient>
</defs>
</svg>
